<svg xmlns="http://www.w3.org/2000/svg" viewBox="0 0 262.47 55.62"><defs><style>.cls-1,.cls-2{fill:#fff;}.cls-2{opacity:0.5;}</style></defs><title>LogoQuitoBlanco</title><g id="Capa_2" data-name="Capa 2"><g id="Capa_1-2" data-name="Capa 1"><path class="cls-1" d="M128.29,18.09a3.63,3.63,0,0,0-3,1.42,5.91,5.91,0,0,0-1.11,3.75,5.91,5.91,0,0,0,1.1,3.75,3.85,3.85,0,0,0,5.87,0,5.74,5.74,0,0,0,1.09-3.72,6.22,6.22,0,0,0-1-3.84,3.44,3.44,0,0,0-2.9-1.4m2.84,12.82a10,10,0,0,0,1.1,1,5.1,5.1,0,0,0,1.06.63,4.18,4.18,0,0,0,1.08.32,7.55,7.55,0,0,0,1.21.09H136a3.18,3.18,0,0,0,.43-.06l.42-.09a1.9,1.9,0,0,0,.36-.12v3a8.61,8.61,0,0,1-1,.2,9.55,9.55,0,0,1-1.53.1,5.44,5.44,0,0,1-2-.36,7.38,7.38,0,0,1-1.75-1,12.1,12.1,0,0,1-1.64-1.45c-.53-.56-1.08-1.15-1.65-1.79a7.36,7.36,0,0,1-3-.68,6.91,6.91,0,0,1-2.28-1.71,7.48,7.48,0,0,1-1.46-2.52,9,9,0,0,1-.52-3.1,8.6,8.6,0,0,1,2.18-6.12A7.65,7.65,0,0,1,128.41,15a7.16,7.16,0,0,1,5.49,2.25A8.17,8.17,0,0,1,136,23.13,9.05,9.05,0,0,1,134.73,28a6.88,6.88,0,0,1-3.6,2.87"/><path class="cls-1" d="M149.14,31.21h-3.5V29.48h-.06a4,4,0,0,1-3.48,2q-4,0-4-4.79V19.83h3.5v6.56c0,1.61.64,2.41,1.92,2.41a1.89,1.89,0,0,0,1.51-.66,2.66,2.66,0,0,0,.57-1.8V19.83h3.5Z"/><rect class="cls-1" x="152.1" y="19.87" width="3.51" height="11.35"/><path class="cls-1" d="M165.46,31.08a5.13,5.13,0,0,1-2.35.41c-2.48,0-3.71-1.28-3.71-3.86V22.42h-1.85V19.83h1.85V17.37l3.5-1v3.46h2.56v2.59H162.9V27c0,1.19.47,1.78,1.41,1.78a2.47,2.47,0,0,0,1.15-.32Z"/><path class="cls-1" d="M173,22.24a2.31,2.31,0,0,0-1.93.86,3.75,3.75,0,0,0-.69,2.42c0,2.19.88,3.28,2.65,3.28s2.52-1.12,2.52-3.37-.85-3.19-2.55-3.19m-.09,9.25a6.12,6.12,0,0,1-4.47-1.59,5.79,5.79,0,0,1-1.63-4.34,5.79,5.79,0,0,1,1.69-4.42A6.4,6.4,0,0,1,173,19.55a6.07,6.07,0,0,1,4.45,1.59,5.7,5.7,0,0,1,1.61,4.22,6,6,0,0,1-1.66,4.49,6.23,6.23,0,0,1-4.56,1.64"/><path class="cls-1" d="M141.4,35.65v6.2h1.11a3,3,0,0,0,2.28-.86,3.23,3.23,0,0,0,.82-2.34,2.93,2.93,0,0,0-.82-2.2,3.15,3.15,0,0,0-2.3-.8Zm-2.23,8V33.86h3.51q5.28,0,5.28,4.77a4.76,4.76,0,0,1-1.44,3.64,5.35,5.35,0,0,1-3.84,1.37Z"/><path class="cls-1" d="M150.5,36.24a1.24,1.24,0,0,1-.9-.32,1,1,0,0,1-.36-.8,1,1,0,0,1,.36-.79,1.32,1.32,0,0,1,.9-.3,1.35,1.35,0,0,1,.91.3,1,1,0,0,1,.35.79,1.05,1.05,0,0,1-.35.81,1.31,1.31,0,0,1-.91.31"/><rect class="cls-1" x="149.39" y="36.65" width="2.18" height="6.98"/><path class="cls-1" d="M158.2,40.28v-.55a1.71,1.71,0,0,0-.39-1.13,1.31,1.31,0,0,0-1-.47,1.36,1.36,0,0,0-1.14.56,2.6,2.6,0,0,0-.41,1.58,2.22,2.22,0,0,0,.39,1.38,1.28,1.28,0,0,0,1.08.51,1.34,1.34,0,0,0,1.1-.52,2.12,2.12,0,0,0,.41-1.36m2.16,2.56a3.91,3.91,0,0,1-1.14,3,4.67,4.67,0,0,1-3.31,1.07,5.23,5.23,0,0,1-2.26-.4V44.7a4.37,4.37,0,0,0,2.2.63,2.39,2.39,0,0,0,1.72-.58,2.06,2.06,0,0,0,.61-1.56v-.55h0a2.46,2.46,0,0,1-2.21,1.17,2.66,2.66,0,0,1-2.15-.94,3.79,3.79,0,0,1-.79-2.53,4.19,4.19,0,0,1,.88-2.81,2.9,2.9,0,0,1,2.33-1.05,2.16,2.16,0,0,1,1.94,1h0v-.82h2.18Z"/><path class="cls-1" d="M169,43.64h-2.17V39.76c0-1.08-.4-1.63-1.18-1.63a1.18,1.18,0,0,0-.93.43,1.61,1.61,0,0,0-.37,1.1v4h-2.18v-7h2.18v1.11h0a2.51,2.51,0,0,1,2.27-1.28c1.57,0,2.35,1,2.35,2.88Z"/><path class="cls-1" d="M174.18,38.13a1.46,1.46,0,0,0-1.2.53,2.28,2.28,0,0,0-.43,1.49q0,2,1.65,2t1.56-2.07c0-1.3-.52-2-1.58-2m-.05,5.68a3.87,3.87,0,0,1-2.79-1,4,4,0,0,1,0-5.37,4,4,0,0,1,2.84-1,3.81,3.81,0,0,1,2.77,1,3.47,3.47,0,0,1,1,2.59,3.66,3.66,0,0,1-1,2.75,3.9,3.9,0,0,1-2.83,1"/><path class="cls-1" d="M139.5,16.9v1.38h-.9v-4H140c1,0,1.51.43,1.51,1.28a1.23,1.23,0,0,1-.43,1,1.77,1.77,0,0,1-1.16.37Zm0-1.93v1.24h.35c.48,0,.73-.21.73-.63s-.25-.61-.73-.61Z"/><path class="cls-1" d="M143.39,18.35a1.59,1.59,0,0,1-1.13-.4,1.65,1.65,0,0,1,0-2.2,1.58,1.58,0,0,1,1.15-.4,1.5,1.5,0,0,1,1.11.4,1.43,1.43,0,0,1,.41,1.06,1.49,1.49,0,0,1-.42,1.12A1.54,1.54,0,0,1,143.39,18.35Zm0-2.33a.61.61,0,0,0-.49.22,1,1,0,0,0-.17.61c0,.55.22.82.66.82s.64-.28.64-.84S143.84,16,143.41,16Z"/><path class="cls-1" d="M147.39,16.21a.89.89,0,0,0-.38-.08.54.54,0,0,0-.45.21,1,1,0,0,0-.16.57v1.37h-.88V15.42h.88V16h0a.76.76,0,0,1,.76-.58.69.69,0,0,1,.22,0Z"/><path class="cls-1" d="M152.09,18.28h-.88v-.44h0a1,1,0,0,1-.88.51c-.66,0-1-.4-1-1.21V15.42h.88v1.65q0,.6.48.6a.48.48,0,0,0,.38-.16.71.71,0,0,0,.14-.45V15.42h.88Z"/><path class="cls-1" d="M155.6,18.28h-.88V16.69c0-.44-.16-.67-.48-.67a.48.48,0,0,0-.38.18.73.73,0,0,0-.14.45v1.63h-.89V15.42h.89v.45h0a1,1,0,0,1,.92-.52c.63,0,.95.39.95,1.18Z"/><path class="cls-1" d="M202.31,40.51h1.88a1.83,1.83,0,0,1,1.33.54,1.81,1.81,0,0,1,.56,1.32,1.51,1.51,0,0,1-.14.62,1.94,1.94,0,0,1-.36.51,1.22,1.22,0,0,1,.47.61,2.26,2.26,0,0,1,.16.78,1.88,1.88,0,0,1-1.88,1.86h-2Zm1.12,1.08v1.48h1a.43.43,0,0,0,.34-.23.79.79,0,0,0-.06-1,.72.72,0,0,0-.55-.23Zm0,2.56v1.52h.9a.71.71,0,0,0,.54-.23.78.78,0,0,0,.22-.55.93.93,0,0,0-.15-.49.44.44,0,0,0-.35-.25Z"/><path class="cls-1" d="M208.1,46.75H207V40.51h1.13Z"/><path class="cls-1" d="M214,45.25l.78.75a3.54,3.54,0,0,1-4.91,0,3.29,3.29,0,0,1,0-4.74,3.54,3.54,0,0,1,4.91,0L214,42a2.37,2.37,0,0,0-1.67-.66,2.29,2.29,0,0,0-1.67.67,2.22,2.22,0,0,0,0,3.22,2.29,2.29,0,0,0,1.67.67A2.37,2.37,0,0,0,214,45.25Z"/><path class="cls-1" d="M219.08,41.59h-2.55v1.5h2.12v1.08h-2.12v1.5h2.55v1.08h-3.67V40.51h3.67Z"/><path class="cls-1" d="M224.28,44.36V40.51h1.11V47l-4.2-4.09v3.85h-1.11V40.27Z"/><path class="cls-1" d="M229.78,41.59h-1.29v5.16h-1.11V41.59H226.1V40.51h3.68Z"/><path class="cls-1" d="M234.18,41.59h-2.55v1.5h2.11v1.08h-2.11v1.5h2.55v1.08H230.5V40.51h3.68Z"/><path class="cls-1" d="M239.38,44.36V40.51h1.11V47l-4.21-4.09v3.85h-1.11V40.27Z"/><path class="cls-1" d="M247.6,46.75h-1.23l-.54-1h-3l-.54,1h-1.24l3.29-6.48Zm-4.22-2.14h1.9l-.94-1.88Z"/><path class="cls-1" d="M248.16,40.51H250a2,2,0,0,1,1.42.57,1.87,1.87,0,0,1,.58,1.39,1.94,1.94,0,0,1-1.13,1.75l1.71,2.53h-1.33l-1.6-2.34h-.35v2.34h-1.12Zm1.12,1.08v1.74H250a.89.89,0,0,0,.64-.25.83.83,0,0,0,.26-.61.85.85,0,0,0-.26-.62.9.9,0,0,0-.64-.26Z"/><path class="cls-1" d="M254.31,46.75h-1.12V40.51h1.12Z"/><path class="cls-1" d="M256.08,41.26a3.53,3.53,0,0,1,4.9,0A3.26,3.26,0,0,1,261,46a3.53,3.53,0,0,1-4.9,0,3.26,3.26,0,0,1,0-4.74Zm4.12.76a2.42,2.42,0,0,0-3.34,0,2.22,2.22,0,0,0,0,3.22,2.42,2.42,0,0,0,3.34,0,2.22,2.22,0,0,0,0-3.22Z"/><path class="cls-1" d="M225.61,26.93a4.9,4.9,0,0,0,5,4.81,5,5,0,0,0,2.77-.82,5.46,5.46,0,0,1-2,.38A5.26,5.26,0,0,1,226,26.12a5,5,0,0,1,.32-1.56A4.72,4.72,0,0,0,225.61,26.93Z"/><path class="cls-1" d="M254.48,17.28a11.33,11.33,0,0,1,2.21,2.48A10.16,10.16,0,0,1,259,25.92a10.3,10.3,0,0,1-.62,3.52,18.49,18.49,0,0,0-4.54-2.64,5.18,5.18,0,0,0-1.61-4.34,5.44,5.44,0,0,0-7.6.06,4.8,4.8,0,0,0-1.09,2.08,4.37,4.37,0,0,1,.78-1.19,5.19,5.19,0,0,1,7.31-.08,5,5,0,0,1,1.58,3.22A5.11,5.11,0,0,1,253.1,28l.39.11a17.05,17.05,0,0,1,4.5,2.22,14.9,14.9,0,0,1,1.58,1.27,13.06,13.06,0,0,1,2.4,3.22,7.58,7.58,0,0,0-2.09-4,11,11,0,0,0,.68-3.82A11.31,11.31,0,0,0,254.48,17.28Z"/><path class="cls-1" d="M232,19.85a50.62,50.62,0,0,1,9.76-3.45c5.38-1.27,10.63-3,16-7.8,0,0-6.88,4.23-12.7,5.75S235.54,17.19,232,19.85Z"/><path class="cls-1" d="M262.47,38.52s-.93-6.35-11.91-8.2c-9.4-1.59-11.26-.49-17.28-5.2l-2.45-.64a23.41,23.41,0,0,0,7.68-.56c8.8-1.93,16.27-10.7,16.27-10.7C236.91,28.8,227,21.15,227,21.15c-.82-.66-1.76-1.64-2.89-2.67,5.95-4.93,15.5-6.2,23.88-8.25,10.76-2.63,12-5.34,12-5.34a185.72,185.72,0,0,0-27.51,7.78,31.68,31.68,0,0,0-9.12,5.16A13.37,13.37,0,0,0,216,14.34a13.73,13.73,0,0,0-6,1,18.65,18.65,0,0,1-4,1.05,73.53,73.53,0,0,1-7.78.26c-6.91,0,1.42.44,1.42.44,3.36.08,7.17.41,7.17.41a12.21,12.21,0,0,1,11.65-.88c2.62,1.3,4.7,4,6.25,5.31a10.43,10.43,0,0,0,3.39,2c.58.7,4.89,5.57,13.43,7.17a11.62,11.62,0,0,1-10.13,5.73c-5,0-9.16-2.77-10.69-6.79-2.7-7.08-4.4-7.43-4.4-7.43a17.63,17.63,0,0,1,3,7.41v0c0,.11.07.23.11.34L215,34.66l3.86-2.42h1.33a11.57,11.57,0,0,0,2.94,3.61H206.66l8.11-8.32c2.27-2.5,1.57-5.59-1-7.76a6.21,6.21,0,0,0-5.44-1.32,6.5,6.5,0,0,1,5.23,2.66c2.24,3.34-.94,6.21-.94,6.21-3.21,3-10.48,10.6-10.48,10.6h24.76a12.1,12.1,0,0,0,3.86.63,11.8,11.8,0,0,0,11.09-7.47,26.17,26.17,0,0,0,2.63.34,44,44,0,0,1,11.24,2,11.18,11.18,0,0,1-3.59,2.31A12,12,0,0,1,247,36.93a12.37,12.37,0,0,1-7-2.63l0,0a12.44,12.44,0,0,0,8.8,4.12,11.94,11.94,0,0,0,9-4.08A13.12,13.12,0,0,1,262.47,38.52Z"/><path class="cls-1" d="M213.38,21.61a6.45,6.45,0,0,0-5.48,1.74h-5.47a11,11,0,0,0-.36,1.6h6.56A5.36,5.36,0,0,1,213.38,21.61Z"/><path class="cls-1" d="M51.24,32.45V42.83H49.37V42A3.19,3.19,0,0,1,47,43a3.65,3.65,0,0,1-3.59-3.85A3.65,3.65,0,0,1,47,35.31a3.19,3.19,0,0,1,2.4,1v-3.9Zm-1.87,6.71a2,2,0,1,0-2,2A2,2,0,0,0,49.37,39.16Z"/><path class="cls-1" d="M59.85,39.81H54.46a2.27,2.27,0,0,0,2.46,1.54,5.49,5.49,0,0,0,2.52-.65v1.69a6,6,0,0,1-2.69.62c-2.74,0-4.3-1.66-4.3-3.81a3.78,3.78,0,0,1,3.85-3.89A3.54,3.54,0,0,1,60,38.93,4.27,4.27,0,0,1,59.85,39.81Zm-5.41-1.33H58A1.7,1.7,0,0,0,56.29,37,1.9,1.9,0,0,0,54.44,38.48Z"/><path class="cls-1" d="M72.22,43.14a2.08,2.08,0,0,0,.66-.12v1.83a3.12,3.12,0,0,1-1,.16,3.6,3.6,0,0,1-3.2-2v0A5.68,5.68,0,0,1,68,43a5.15,5.15,0,1,1,5.25-5.15,5,5,0,0,1-2.56,4.45A1.83,1.83,0,0,0,72.22,43.14Zm-4.27-2a3.23,3.23,0,1,0-3.2-3.23A3.14,3.14,0,0,0,68,41.09Z"/><path class="cls-1" d="M79.91,35.48v7.35H78V42.2a2.16,2.16,0,0,1-1.76.81,2.1,2.1,0,0,1-2.17-2.28V35.48H76v4.69a.93.93,0,0,0,1,1,1,1,0,0,0,1.08-1V35.48Z"/><path class="cls-1" d="M81.33,33.33a1.2,1.2,0,0,1,2.39,0,1.2,1.2,0,0,1-2.39,0Zm.26,2.15h1.87v7.35H81.59Z"/><path class="cls-1" d="M87.43,37.2v3.25a.7.7,0,0,0,.77.8,1.88,1.88,0,0,0,.6-.12v1.75a3.45,3.45,0,0,1-.91.13,2.18,2.18,0,0,1-2.34-2.38V37.2h-1V35.48h1V33.87h1.88v1.61H88.8V37.2Z"/><path class="cls-1" d="M89.43,39.16a4,4,0,1,1,4,3.85A3.82,3.82,0,0,1,89.43,39.16Zm6,0a2,2,0,1,0-2,2A2,2,0,0,0,95.4,39.16Z"/><path class="cls-1" d="M50.42,28.32l-.33-6.7-1.32,5.05H47l-1.3-5-.33,6.65h-2L44,18.38h2.6l1.3,5.69,1.29-5.69h2.55l.62,9.94Z"/><path class="cls-1" d="M59.49,21v7.35H57.61v-.63a2.16,2.16,0,0,1-1.76.81,2.1,2.1,0,0,1-2.17-2.28V21h1.87v4.69a.94.94,0,0,0,1,1,1,1,0,0,0,1.08-1.05V21Z"/><path class="cls-1" d="M67.13,23.09v5.23H65.25V23.71a1,1,0,0,0-1-1.09A1.07,1.07,0,0,0,63,23.74v4.58H61.16V21H63v.68a2.32,2.32,0,0,1,1.86-.85A2.14,2.14,0,0,1,67.13,23.09Z"/><path class="cls-1" d="M68.41,18.83a1.2,1.2,0,0,1,2.39,0,1.2,1.2,0,0,1-2.39,0ZM68.67,21h1.87v7.35H68.67Z"/><path class="cls-1" d="M71.73,24.65a3.82,3.82,0,0,1,4-3.85,4.39,4.39,0,0,1,1.87.4v1.85a3.61,3.61,0,0,0-1.69-.43,2,2,0,1,0,0,4.06,3.74,3.74,0,0,0,1.69-.43v1.84a4.26,4.26,0,0,1-1.87.41A3.8,3.8,0,0,1,71.73,24.65Z"/><path class="cls-1" d="M78.78,18.83a1.2,1.2,0,0,1,2.39,0,1.2,1.2,0,0,1-2.39,0ZM79,21h1.87v7.35H79Z"/><path class="cls-1" d="M90.41,24.65a3.64,3.64,0,0,1-3.57,3.85,3.17,3.17,0,0,1-2.4-1v3.6H82.57V21h1.87v.87a3.17,3.17,0,0,1,2.4-1A3.64,3.64,0,0,1,90.41,24.65Zm-1.93,0a2,2,0,1,0-2,2A2,2,0,0,0,88.48,24.65Z"/><path class="cls-1" d="M91.07,18.83a1.2,1.2,0,0,1,2.4,0,1.2,1.2,0,0,1-2.4,0ZM91.33,21h1.88v7.35H91.33Z"/><path class="cls-1" d="M94.1,24.65a4,4,0,1,1,4,3.85A3.82,3.82,0,0,1,94.1,24.65Zm6,0a2,2,0,1,0-2,2A2,2,0,0,0,100.07,24.65Z"/><path class="cls-1" d="M32.2,14.27a1.19,1.19,0,0,0-1,.65l1.27.26a.65.65,0,0,0-.65.66.63.63,0,0,0,.52.66,1,1,0,0,0,1-1.06,1.14,1.14,0,0,0-1.13-1.17Z"/><path class="cls-1" d="M29.46,46a8.92,8.92,0,0,0,2.47-4.69v0a3.07,3.07,0,0,0,0-1.08,1.15,1.15,0,0,0,0-.21v0c0-.13,0-.21,0-.21s0,0,0,.07c-.06-.39-.12-.66-.12-.66-.32-1.51-.37-1.89-.76-3.62A3.88,3.88,0,0,1,32,31.79a1.12,1.12,0,0,1-.25-.28,4.24,4.24,0,0,0-1,4.11c.24,1.1.35,1.66.48,2.3.08.37.16.77.27,1.3v0a2.9,2.9,0,0,1,.07.35,3.14,3.14,0,0,1,.07,1.51v0h0l0,0c-.37.44-1.11.1-1.11.1h0a1,1,0,0,1-.21-.14l0,0a.94.94,0,0,1-.18-.25.48.48,0,0,1,0-.31c.07-.36.63-.35.94-.3l.23-.51c-1-.26-1.27.32-1.22.82v0a4.66,4.66,0,0,1,0,.75h0l0,.18h0A6.49,6.49,0,0,1,28,44.67l-.09.09a1,1,0,0,0-.4.89,1,1,0,0,0,1.06.88,1.18,1.18,0,0,0,.62-.3l.24-.26,0,0Z"/><path class="cls-1" d="M3.1,16.5a.64.64,0,0,0,.52-.66A.65.65,0,0,0,3,15.18l1.27-.26a1.19,1.19,0,0,0-1-.65h0a1.15,1.15,0,0,0-1.14,1.17A1,1,0,0,0,3.1,16.5Z"/><path class="cls-1" d="M21.13,10.09a.81.81,0,0,0,0-1.15l-.08-.07a.71.71,0,0,0,.39-1.33.86.86,0,0,0-.21-.07.9.9,0,0,0,.21-.4.83.83,0,0,0-.64-1,1.4,1.4,0,0,0-.48,0,.71.71,0,0,0,.15-.22.6.6,0,0,0-.35-.77,5.28,5.28,0,0,0-1.67.11,4.62,4.62,0,0,1,.6.19,3.55,3.55,0,0,1,1.56,1.3,2.63,2.63,0,0,1,.2,2.16,7.07,7.07,0,0,1-.63,1.36,10,10,0,0,0-.47.92.68.68,0,0,0,.54-.07.67.67,0,0,0,.26-.78A.79.79,0,0,0,21.13,10.09Z"/><path class="cls-1" d="M14.76,14.44A2.08,2.08,0,0,0,14,15.88a2,2,0,0,0-1.8-.16l-.46.21.2.08a2.22,2.22,0,0,1,.41.2,4.23,4.23,0,0,0,.46.25,1.82,1.82,0,0,1,1.16-.36s.15,0,.3.07A1.26,1.26,0,0,0,14.1,16l-.12-.1,1.7-1.79A2.29,2.29,0,0,0,14.76,14.44Z"/><path class="cls-1" d="M12.31,24.48a1.73,1.73,0,0,0,1.55.43c.07,0,.45-.24.48-.23a.32.32,0,0,1,.18.37.67.67,0,0,1-.23.37,1.38,1.38,0,0,1-1.1.34.82.82,0,0,0,.15.36,1,1,0,0,0,.44.18,1,1,0,0,0,.42,0c.31-.1.54-.54.72-.79l.34.27s.05,0,.05.06-.2.13-.15.21a1.57,1.57,0,0,1,.61,0c.07,0,0-.15-.08-.16s-.17,0-.23,0,0-.13,0-.2a.41.41,0,0,0-.28-.38c.06,0,.1-.06.13-.16l.19-.13.09-.08s.12-.06.13.12a.09.09,0,0,0,.11.09s-.09,0,0-.15.15-.17.07-.32,0-.12.13-.1a.18.18,0,0,0-.08-.08.14.14,0,0,0-.15.09s0,.12,0,.17-.21,0-.36,0c0-.12,0-.22,0-.25a.53.53,0,0,1,.28-.58c.32-.06.27.1.27.1l0-.05c.1-.15-.19-.27-.19-.27s-.07-.15-.36-.15-.24-.07-.24-.09a.17.17,0,0,0,.08.21,1.56,1.56,0,0,0-.53.49,1.86,1.86,0,0,0-1.23-.46c-.73-.08-1.23-.77-1.62-1.32,0,0-.19.51-.2.57A1.87,1.87,0,0,0,12.31,24.48Z"/><path class="cls-1" d="M19.21,24.6c-.08.15.07.32.07.32s0,.15,0,.15a.09.09,0,0,0,.11-.09c0-.18.13-.12.13-.12l.09.08a1.35,1.35,0,0,0,.21.13c0,.11.07.18.12.16a.41.41,0,0,0-.28.38.27.27,0,0,1,0,.2c-.06.05-.15,0-.23,0s-.15.12-.08.16a1.57,1.57,0,0,1,.61,0c.05-.08-.16-.12-.15-.21a.1.1,0,0,1,0-.06l.34-.27c.18.25.42.69.72.79a1,1,0,0,0,.42,0,1,1,0,0,0,.44-.18.82.82,0,0,0,.15-.36,1.39,1.39,0,0,1-1.1-.34.67.67,0,0,1-.23-.37.32.32,0,0,1,.18-.37s.41.21.48.23a1.76,1.76,0,0,0,1.56-.43,1.89,1.89,0,0,0,.64-1.64c0-.06-.21-.56-.2-.57-.39.55-.88,1.24-1.62,1.32a1.86,1.86,0,0,0-1.23.46,1.56,1.56,0,0,0-.53-.49.17.17,0,0,0,.08-.21s0,.09-.24.09-.34.1-.35.15-.3.12-.2.27l0,.05s-.05-.16.27-.1a.54.54,0,0,1,.29.58,1,1,0,0,0,0,.25c-.15,0-.25.14-.37,0s0-.17,0-.17a.14.14,0,0,0-.15-.09.18.18,0,0,0-.08.08C19.24,24.48,19.21,24.6,19.21,24.6Z"/><rect class="cls-1" x="14.27" y="27.24" width="1.62" height="0.27" rx="0.11"/><rect class="cls-1" x="14.41" y="27.69" width="1.34" height="1.02"/><path class="cls-1" d="M19,28.71V27.24H16.13v1.47h1v-.47a.38.38,0,1,1,.76,0v.47Z"/><path class="cls-1" d="M15.83,26.4v0a.21.21,0,0,0,.21.21h.13v.27a.18.18,0,0,0,.18.18h2.41a.18.18,0,0,0,.18-.18v-.27H19a.21.21,0,0,0,.21-.21v0a.21.21,0,0,0-.21-.2H16A.2.2,0,0,0,15.83,26.4Z"/><path class="cls-1" d="M17.83,25.36v-.74h.37v-.44h-.37v-.37h-.45v.37H17v.44h.37v.73a1.4,1.4,0,0,0-1,.65h2.37A1.38,1.38,0,0,0,17.83,25.36Z"/><path class="cls-1" d="M21.42,29.32V28.9H13.66v.42a.37.37,0,0,0,.36.37h7A.37.37,0,0,0,21.42,29.32Z"/><rect class="cls-1" x="19.33" y="27.69" width="1.34" height="1.02"/><rect class="cls-1" x="13.82" y="35.85" width="7.39" height="0.4"/><path class="cls-1" d="M14.38,35v.33h-.32v.34H21v-.34H20.7V35h-.17v-.28h0V30.59h0l.26-.34a.21.21,0,0,0-.16-.34h-6a.21.21,0,0,0-.16.34l.25.32v4.34h0V35Zm4.43-3.91a.52.52,0,0,1,.52.52.52.52,0,0,1-1,0A.52.52,0,0,1,18.81,31.05Zm-.2,2.65v1H16.53v-1a1,1,0,0,1,2.08,0Zm-2.24-2.65a.52.52,0,0,1,.51.52.52.52,0,1,1-1,0A.52.52,0,0,1,16.37,31.05Z"/><rect class="cls-1" x="19.21" y="27.24" width="1.62" height="0.27" rx="0.11"/><path class="cls-1" d="M17.37,53.16a.64.64,0,0,0-.64.64,10.53,10.53,0,0,0,.64,1.82A10.53,10.53,0,0,0,18,53.8.64.64,0,0,0,17.37,53.16Z"/><path class="cls-1" d="M20.8,47l0-.06a1.71,1.71,0,0,1,.13-.23l.07-.1-.29,0c-.8.09-.84.74-1,.78.13-.16.06-.41.17-.69a1.51,1.51,0,0,1,.2-.35l.1-.16-.44.08c-.57.13-1.5.82-1.5,1.33a2.49,2.49,0,0,0-.85-.09h0a2.49,2.49,0,0,0-.85.09c0-.51-.94-1.2-1.51-1.33l-.44-.08.11.16a2,2,0,0,1,.19.35c.12.28.05.53.18.69-.13,0-.18-.69-1-.78l-.28,0,.07.1a1.67,1.67,0,0,1,.12.23l0,.06c-3.44-.84-3.81,2.16-3.54,2.92a1.28,1.28,0,0,0,1,.84h0a1.32,1.32,0,0,0,.33,0h0a1.64,1.64,0,0,0,.45,0,1.17,1.17,0,0,0,.83-1.47h0a.58.58,0,0,1-.61.51c-.73-.1-.6-.9-.44-1.1l.11-.1.33,0c.89-.1,1.91.46,3,.61L16,49a5.54,5.54,0,0,0,1.2-.88l0,0,.13-.18.19.21a5.82,5.82,0,0,0,1.19.88l.56.12c1.08-.12,2.13-.72,3.06-.62l.32,0,.11.1c.17.2.29,1-.43,1.1a.57.57,0,0,1-.61-.51h0a1.16,1.16,0,0,0,.82,1.47,1.68,1.68,0,0,0,.45,0h0a1.35,1.35,0,0,0,1.31-.87C24.62,49.12,24.25,46.12,20.8,47Zm-9,2.48a.77.77,0,0,0,.66.48h.1a.67.67,0,0,0,.37-.11.92.92,0,0,1-.09.23,1,1,0,0,1-.61.47,1.75,1.75,0,0,1-.4,0,1.24,1.24,0,0,1-.27,0l0,0a1.13,1.13,0,0,1,.3-1.85A1.12,1.12,0,0,0,11.83,49.44Zm11.46,1.1a1.12,1.12,0,0,1-.27,0,1.67,1.67,0,0,1-.39,0,1,1,0,0,1-.61-.47.92.92,0,0,1-.09-.23.65.65,0,0,0,.37.11h.09a.76.76,0,0,0,.66-.48,1.2,1.2,0,0,0,0-.77,1.13,1.13,0,0,1,.31,1.84Z"/><path class="cls-1" d="M14.29,51.15h0Z"/><path class="cls-1" d="M16,51.1c.14,0,.29-.19.29-.46s-.15-.47-.29-.47h-1.1a1,1,0,0,1,.1.47,1,1,0,0,1-.1.46Z"/><path class="cls-1" d="M24,17.79a1.45,1.45,0,0,1,.36,0h.31l-.32-.43a1.72,1.72,0,0,0-1.86-.63,1.06,1.06,0,0,0-.24.16,2.09,2.09,0,0,1,.52.66c0,.05.06.12.1.2A2.13,2.13,0,0,0,24,17.79Z"/><path class="cls-1" d="M19,16a1.26,1.26,0,0,0-.14.18c.15-.05.3-.06.3-.07a2.06,2.06,0,0,1,.35,0,2.13,2.13,0,0,1,.81.34,4.23,4.23,0,0,0,.46-.25,2.22,2.22,0,0,1,.41-.2l.2-.08L21,15.72A1.92,1.92,0,0,0,19,16Z"/><path class="cls-1" d="M20.94,16.58a1.56,1.56,0,0,0-.31.08,2.32,2.32,0,0,1,.45.58l.21.43a3.08,3.08,0,0,0,.86.24,2.2,2.2,0,0,1,.44.12l.21.07-.22-.46A1.9,1.9,0,0,0,20.94,16.58Z"/><path class="cls-1" d="M18.81,16.5s.05.95,1.65,1.13a2.16,2.16,0,0,1,.44.1l.21.07-.23-.46a1.89,1.89,0,0,0-1.67-1C19.16,16.33,18.81,16.41,18.81,16.5Z"/><path class="cls-1" d="M20.84,16.35l0,0h.12a1,1,0,0,1,.3,0,2,2,0,0,1,.84.35,1.46,1.46,0,0,1,.34-.22,1.65,1.65,0,0,1,.8-.08l-.43-.22A1.92,1.92,0,0,0,20.84,16.35Z"/><path class="cls-1" d="M8.78,17.35l-.32.43h.31a1.45,1.45,0,0,1,.36,0,2.13,2.13,0,0,0,1.13-.05c0-.08.08-.15.1-.2a2.24,2.24,0,0,1,.52-.66,1.06,1.06,0,0,0-.24-.16A1.72,1.72,0,0,0,8.78,17.35Z"/><path class="cls-1" d="M10.56,17.64l-.22.46.21-.07a2.2,2.2,0,0,1,.44-.12,3.08,3.08,0,0,0,.86-.24l.21-.43a2.35,2.35,0,0,1,.46-.58,1.8,1.8,0,0,0-.32-.08A1.9,1.9,0,0,0,10.56,17.64Z"/><path class="cls-1" d="M10.35,16.21l-.43.22a1.65,1.65,0,0,1,.8.08,1.65,1.65,0,0,1,.35.22,1.9,1.9,0,0,1,.83-.35,1,1,0,0,1,.3,0h.12l0,0A1.92,1.92,0,0,0,10.35,16.21Z"/><path class="cls-1" d="M24.3,39.07V38.3l-1.42-1.94a1,1,0,0,0-1.62.2l-4,5.81a2.19,2.19,0,0,1,.39.29,4.75,4.75,0,0,1,2.71-1v-.87a1.08,1.08,0,1,1,2.15,0v.76l.27-.06a2.45,2.45,0,0,0,1.54-2.42Z"/><path class="cls-1" d="M13.49,36.49a.8.8,0,0,0-1.27-.1l-1.43,2.18v.58A2.56,2.56,0,0,0,12,41.42a2.54,2.54,0,0,0,.57.19V41a1.08,1.08,0,0,1,2.16,0v.69a6.41,6.41,0,0,1,2,.41l.73-1Z"/><path class="cls-1" d="M34.23,23.84v0Z"/><path class="cls-1" d="M33.71,35.59a.6.6,0,1,0-1,0,.61.61,0,0,0-.75.1.6.6,0,0,0,0,.85.61.61,0,0,0,.71.09.61.61,0,0,0,.1.75.6.6,0,0,0,.85,0,.58.58,0,0,0,.09-.7.59.59,0,0,0,.65,0,.61.61,0,0,0,.17-.84A.62.62,0,0,0,33.71,35.59Zm-.26.78a.38.38,0,1,1,0-.54A.38.38,0,0,1,33.45,36.37Z"/><path class="cls-1" d="M32.92,37.84l0,5.49h.5l0-5.5a1.09,1.09,0,0,1-.26,0Z"/><path class="cls-1" d="M33.17,45.1a2.59,2.59,0,0,1-.89.71.9.9,0,0,0,1.79,0A2.73,2.73,0,0,1,33.17,45.1Z"/><path class="cls-1" d="M35.16,45.6a4.09,4.09,0,0,1-.25-.46c-.63-1.54-1.56-1.5-1.74-1.47s-1.1-.07-1.73,1.47a4.09,4.09,0,0,1-.25.46l-.14.2.57-.11a2.23,2.23,0,0,0,1.55-1.25,2.26,2.26,0,0,0,1.56,1.25l.57.11Z"/><path class="cls-1" d="M33.41,34.37V32.12a1.52,1.52,0,0,1-.42.06h-.08v2.21a.9.9,0,0,1,.28,0A.78.78,0,0,1,33.41,34.37Z"/><path class="cls-1" d="M33,25.1a1.66,1.66,0,0,1-.64-.12,1.12,1.12,0,0,1-.55-.75v0s0-.72.9-.71l.28,0V23l-.16,0a1,1,0,0,0-1.07,1v6.65a1.4,1.4,0,0,0,.06.41h0a.49.49,0,0,0,0,.11v0a.41.41,0,0,0,.05.09v0l.06.09h0l.08.09h0l.08.08h0l.07.06,0,0,0,0a1.24,1.24,0,0,0,.67.22A1.16,1.16,0,0,0,34.2,31V30.4a.17.17,0,0,1,0,.07l0-5.57h0V24A1.27,1.27,0,0,1,33,25.1Z"/><path class="cls-1" d="M1.17,23.89v0Z"/><path class="cls-1" d="M1.88,37.84v5.49h.5v-5.5a1.26,1.26,0,0,1-.27,0A.85.85,0,0,1,1.88,37.84Z"/><path class="cls-1" d="M1.59,36.61a.61.61,0,0,0,.1.75.6.6,0,0,0,.85,0,.59.59,0,0,0,.1-.7.58.58,0,0,0,.64,0,.61.61,0,0,0,.17-.84.62.62,0,0,0-.79-.19.6.6,0,0,0-1-.73.61.61,0,0,0-.09.71.61.61,0,0,0-.75.1.6.6,0,0,0,0,.85A.59.59,0,0,0,1.59,36.61Zm.26-.77a.38.38,0,1,1,0,.54A.38.38,0,0,1,1.85,35.84Z"/><path class="cls-1" d="M3.86,45.14c-.63-1.54-1.56-1.5-1.73-1.47S1,43.6.39,45.14a2.94,2.94,0,0,1-.25.46L0,45.8l.57-.11a2.26,2.26,0,0,0,1.56-1.25,2.25,2.25,0,0,0,1.55,1.25l.57.11-.13-.2A3,3,0,0,1,3.86,45.14Z"/><path class="cls-1" d="M2.13,45.1a2.73,2.73,0,0,1-.9.71.9.9,0,0,0,1.79,0A2.59,2.59,0,0,1,2.13,45.1Z"/><path class="cls-1" d="M1.86,32.15v2.23a.86.86,0,0,1,.28,0,.83.83,0,0,1,.22,0V32.22h0A1.49,1.49,0,0,1,1.86,32.15Z"/><path class="cls-1" d="M1.12,23.84a0,0,0,0,0,0,0Z"/><path class="cls-1" d="M1.12,24.9h0l0,5.57a.17.17,0,0,1,0-.07V31a1.17,1.17,0,0,0,1.21.87A1.24,1.24,0,0,0,3,31.64l0,0,0,0,.07-.06h0a.6.6,0,0,0,.08-.08h0l.07-.09h0a.41.41,0,0,0,0-.09l0,0,0-.09v0a.49.49,0,0,0,0-.11h0a1.41,1.41,0,0,0,.07-.41V23.92a.94.94,0,0,0-1.06-1l-.17,0v.53l.28,0c.91,0,.9.71.9.71v0A1.15,1.15,0,0,1,3,25H3l0,0-.06,0H2.8l0,0h-.4a1.19,1.19,0,0,1-1.23-1.16v1Z"/><path class="cls-1" d="M6.36,15.35H6.29a.73.73,0,0,1-.54-.24l-.32-.37a1.48,1.48,0,0,0,0,.21,1,1,0,0,0,1,.86h.08a1,1,0,0,0,.86-1,.94.94,0,0,0-.46-.73l.11.36a.85.85,0,0,1,0,.17.71.71,0,0,1-.17.52A.73.73,0,0,1,6.36,15.35Z"/><path class="cls-1" d="M5.54,14.57l.39.44a.49.49,0,0,0,.42.17l.11,0C5.28,14.31,4,10.3,4,10.3a2.51,2.51,0,0,0,1.64.5A2.21,2.21,0,0,0,6,10.73a2.1,2.1,0,0,0-.15,1.61A23.42,23.42,0,0,0,6.59,15s0,0,0,.06a.5.5,0,0,0,.19-.43l0-.12L6.62,14h0c-.13-.45-.29-1.06-.45-1.76a1.62,1.62,0,0,1,.2-1.48A2.24,2.24,0,0,0,6.85,10h0a.31.31,0,0,1,0-.07v0A2.6,2.6,0,0,0,6.4,7.56a1.92,1.92,0,0,0-2.65-.12C1.79,9,4,12.73,5.54,14.58Z"/><path class="cls-1" d="M29,15.81h.09A.94.94,0,0,0,30,15a.74.74,0,0,0,0-.21l-.33.37a.73.73,0,0,1-.54.24h-.06a.73.73,0,0,1-.48-.25.71.71,0,0,1-.16-.52.47.47,0,0,1,0-.17l.11-.36a.94.94,0,0,0-.46.73A1,1,0,0,0,29,15.81Z"/><path class="cls-1" d="M28.58,9.88a.23.23,0,0,0,0,.07h0a2.55,2.55,0,0,0,.47.84,1.59,1.59,0,0,1,.2,1.48c-.15.7-.32,1.31-.45,1.76h0l-.15.49a.5.5,0,0,0,0,.12.49.49,0,0,0,.18.43s0,0,0-.06a23.42,23.42,0,0,0,.74-2.67,2,2,0,0,0-.15-1.61l.33.07a2.49,2.49,0,0,0,1.63-.5s-1.24,4-2.41,4.86l.1,0a.49.49,0,0,0,.42-.17l.39-.44h0c1.55-1.85,3.74-5.6,1.79-7.14A1.94,1.94,0,0,0,29,7.56a2.63,2.63,0,0,0-.45,2.35Z"/><path class="cls-1" d="M22.89,16l.21.12c2-.19,4.22-.91,5.14-2.47h0l.32.07h0c0-.14.06-.28.09-.37h0l-.43-.08c-.14,0-.23,0-.33.16-.93,1.63-3.49,2.35-5.88,2.36A2.36,2.36,0,0,1,22.89,16Z"/><path class="cls-1" d="M32.67,21.18A6.09,6.09,0,0,1,31,18.91c-1.08-2.5-.31-5.25,1.41-4.83l-1.62-.32-.27.33.38.08a2.6,2.6,0,0,0-.25.31,5.19,5.19,0,0,0,0,4.58,6.6,6.6,0,0,0,1.78,2.42A3.07,3.07,0,0,1,33.85,24v.19A1.72,1.72,0,0,0,34,22.94a3.68,3.68,0,0,0-.15-.41A4.73,4.73,0,0,0,32.67,21.18Z"/><path class="cls-1" d="M18.45,10.52a.31.31,0,0,0,.31-.31.31.31,0,0,0-.62,0A.31.31,0,0,0,18.45,10.52Z"/><path class="cls-1" d="M12.08,6.39a1.55,1.55,0,0,0,1-.56,1.59,1.59,0,0,0,.18-.3h0c0-.06,0-.11.07-.16h0a.5.5,0,0,1,.22-.23h0a.24.24,0,0,1,.12,0h.45a3.42,3.42,0,0,1,.51.08h0l.08,0a3.26,3.26,0,0,1,.44.15,1.37,1.37,0,0,0-.74.64l0,0,0,.24,0,0v0A3.07,3.07,0,1,0,18,11.13l.17.07a3.24,3.24,0,0,1-2.47,1.15v1.73l2.58-2.86.19,0a1,1,0,0,0,.53-.15.42.42,0,0,1,0,.1,3.22,3.22,0,0,0-.17,1,3,3,0,0,0,1,2.29h0c-.83.63-1.94,2.57-5.6,2.29h0a2.5,2.5,0,0,0-1.19.17l0,0h0l-.06.06a1.49,1.49,0,0,0-.6.53.29.29,0,0,0,.12.39.32.32,0,0,0,.14,0,.27.27,0,0,0,.25-.15s.3-.51,1.28-.43a4.09,4.09,0,0,0,1.06,0c3.65-.4,4.56-2.45,5.11-2.5a.28.28,0,0,1,.22.07l0,0a.67.67,0,0,1,.23.49l.55.21a1.77,1.77,0,0,0,0-.4,1.21,1.21,0,0,0-.45-.77.81.81,0,0,0-.49-.19,2.35,2.35,0,0,1-1.15-2.09,2.65,2.65,0,0,1,.15-.84c.31-.88.91-1.6,1.18-2.5a2.37,2.37,0,0,0-.18-2,3.31,3.31,0,0,0-1.46-1.23,3.44,3.44,0,0,0-1.23-.26,5.48,5.48,0,0,1,1.7-.56l.13,0h0a5.15,5.15,0,0,1,.69,0h0l.15,0a2.15,2.15,0,0,1,.34,0h0a1,1,0,0,1,.18.07h0a.72.72,0,0,1,.24.33,3.42,3.42,0,0,0,.25.63,1.93,1.93,0,0,0,1.17.85,1.7,1.7,0,0,0,2-1.41,2.14,2.14,0,0,0-1.75-2.62,4.4,4.4,0,0,0-1.43-.14,4,4,0,0,0-.51.06,1.26,1.26,0,0,0,.5-.7A1.51,1.51,0,0,0,20.38.09C17.9-.56,17.08,2.38,17,4.41c-.12-2-.94-5-3.43-4.32a1.52,1.52,0,0,0-1.06,1.84,1.4,1.4,0,0,0,1.35,1h.1l.08,0h0l.1,0h0l.1-.06.07-.05h0l.05,0h.3l0,0h0l.05,0h0l0,0,0,0,0,0,0,0,.05,0,0,0,0,0,0,0s0,0,.05,0l0,0,0,.06h0a4.17,4.17,0,0,1,.27.38h0l.06.1h0a.41.41,0,0,1,0,.09l0,0a.41.41,0,0,0,.05.09v0s0,.07.05.1v0a.93.93,0,0,0,0,.1V4l0,.09v0l0,.1v0s0,.07,0,.11v0s0,.07,0,.11h0a.56.56,0,0,0,0,.12h0a3.32,3.32,0,0,1,.14.49h0s0,.13,0,.21l0,0h0a4.48,4.48,0,0,0-2.88-2.05,4,4,0,0,0-1.69.09,1.68,1.68,0,0,0-1.3,1.72A1.53,1.53,0,0,0,12.08,6.39Zm1.23,1.44A2.77,2.77,0,0,1,14.72,6.6L15,7a3,3,0,0,0-.74,1.22l0,0,0,0h0l-.83-.28,0,0,0,0Zm3,1.07h0l-.05,0h0L14.69,8.4l0,0,0-.05v0a2.64,2.64,0,0,1,.63-1.05l1.17,1.43A1.53,1.53,0,0,0,16.3,8.9Zm.14.64,0,0,.05,0h0l.78.27.14.17,0,.17-1,.07h0l0,0v0h0A1.81,1.81,0,0,1,16.44,9.54Zm-.46.59v0l0,0h0l-1.07.08h0l0,0h0a2.7,2.7,0,0,1-.26-1.13c0-.07,0-.15,0-.23l0,0,.05,0h0l1.4.49,0,0,0,.05v0a2.47,2.47,0,0,0-.1.67A.43.43,0,0,1,16,10.13Zm-2.55.26h0l-.07,0,0,0A2.71,2.71,0,0,1,13,9.12a2.65,2.65,0,0,1,.11-.74l0,0,.05,0h0l.92.32,0,0,0,0v0a2.77,2.77,0,0,0,0,.39,3,3,0,0,0,.21,1.11v0l0,.05,0,0Zm2,1.38,0,0a2.7,2.7,0,0,1-1.75-.87v0l0-.06,0,0,.81-.06h.06v0a3.2,3.2,0,0,0,.87.89v0Zm1-.11,0,0-.05,0h0a2.7,2.7,0,0,1-1.27-.87v0l0-.06,0,0,.81-.06h0l0,0,0,0a2.25,2.25,0,0,0,.46.88v0Zm.49-.2-.05,0h0a1.93,1.93,0,0,1-.46-.75v0l0-.05h0l.94-.07a1,1,0,0,0,.22.38A2.87,2.87,0,0,1,17,11.46Zm3-4.37a2,2,0,0,1,.13,1.62,6.25,6.25,0,0,1-.58,1.23l-.07.13a1,1,0,0,0-.82-.86L16.72,5.94a3.08,3.08,0,0,1,2,.11A2.9,2.9,0,0,1,20,7.09Zm1.48-4.18h.26A4.52,4.52,0,0,1,22.79,3,1.82,1.82,0,0,1,24.3,5.25,1.42,1.42,0,0,1,23,6.45a1.1,1.1,0,0,1-.31,0,1.56,1.56,0,0,1-1-.7,2.17,2.17,0,0,1-.16-.38,1.36,1.36,0,0,0-.2-.45.94.94,0,0,1,.43-.7,4.56,4.56,0,0,0-2.73.34A6.39,6.39,0,0,0,17.72,5,5.41,5.41,0,0,1,21.47,2.91ZM18,4.24l0-.07v0A.36.36,0,0,0,18,4l0,0a.3.3,0,0,0,0-.08l0,0a.59.59,0,0,0,0-.08l0,0,0-.08,0,0,0-.08,0,0a.22.22,0,0,0,.05-.08v0c.09-.13.17-.24.26-.35h0L18.68,3l0,0,0,0,0,0,0,0,0,0s0,0,0,0l0,0,0,0,0,0,0,0h0l0,0h0l0,0h.3l0,0h0a.18.18,0,0,1,.07.05l.11.06h0l.1,0h0l.08,0A5.73,5.73,0,0,0,18,4.24Zm.13-2.83A1.88,1.88,0,0,1,19.71.34a2.6,2.6,0,0,1,.59.08A1.11,1.11,0,0,1,21,1a1.16,1.16,0,0,1,.12.89,1.05,1.05,0,0,1-.93.73.55.55,0,0,1-.32-.1.79.79,0,0,0-.5-.18,1.83,1.83,0,0,1,0-.86A3.36,3.36,0,0,0,17.72,3.9a7.35,7.35,0,0,0-.36,1,.44.44,0,0,0-.08.11A7.5,7.5,0,0,1,18.08,1.41ZM16.19,3.9a3.34,3.34,0,0,0-1.66-2.47,1.68,1.68,0,0,1,0,.86.78.78,0,0,0-.49.18.58.58,0,0,1-.32.1,1.07,1.07,0,0,1-.94-.73A1.17,1.17,0,0,1,12.93,1a1.11,1.11,0,0,1,.69-.53,2.53,2.53,0,0,1,.59-.08,1.85,1.85,0,0,1,1.62,1.07,7.74,7.74,0,0,1,.81,3.79A6.74,6.74,0,0,0,16.19,3.9Zm2.23,5.59.06,0a.68.68,0,0,1,.66.68.69.69,0,1,1-1.38,0,.59.59,0,0,1,.07-.29V9.84L14.76,6.11a1.09,1.09,0,0,1,1-.54,1.45,1.45,0,0,1,.29,0l.16,0ZM11.77,3.68a3.43,3.43,0,0,1,1-.12,3.09,3.09,0,0,1,.55,0,4,4,0,0,1,2.46,1.63,4.38,4.38,0,0,0-.94-.37,3.82,3.82,0,0,0-1.87-.38A.66.66,0,0,1,13.2,5a1.43,1.43,0,0,0-.26.4,1.08,1.08,0,0,1-.14.26,1.16,1.16,0,0,1-.76.43h-.17a1.19,1.19,0,0,1-1.18-1A1.38,1.38,0,0,1,11.77,3.68Z"/><path class="cls-1" d="M20.48,50c-.27,0-.48.29-.48.65H21a.61.61,0,0,1-.43.64h-1.7l-.13,0c-.35,0-.67-.21-.62-.73a1.32,1.32,0,0,1,.22-.66,1.8,1.8,0,0,1,.42-.45,6,6,0,0,1-1.32-.94h0a6.31,6.31,0,0,1-1.32.94,1.67,1.67,0,0,1,.41.45,1.25,1.25,0,0,1,.23.66c.05.52-.28.68-.62.73l-.13,0H14.29c-.26,0-.47-.29-.47-.64h.95c0-.36-.22-.65-.48-.65h0a.59.59,0,0,0-.68.54,1.4,1.4,0,0,0,.52,1.29,4.2,4.2,0,0,0,1.88.42c.47.06,1.08.08,1.09.65v0h.49v0c0-.57.62-.59,1.09-.65a4.24,4.24,0,0,0,1.89-.42,1.43,1.43,0,0,0,.52-1.29A.55.55,0,0,0,20.48,50Z"/><path class="cls-1" d="M18.82,50.17c-.14,0-.29.19-.29.47s.15.46.29.46h1.1a1,1,0,0,1-.11-.46,1,1,0,0,1,.11-.47Z"/><path class="cls-1" d="M27.47,46.27a9.08,9.08,0,0,1-3.87,1,2.59,2.59,0,0,1,.38.35,9.32,9.32,0,0,0,3.76-1.06A.9.9,0,0,1,27.47,46.27Z"/><path class="cls-1" d="M6.75,13.72l.32-.07h0a5.52,5.52,0,0,0,3.65,2.23l.2,0a2.36,2.36,0,0,1,.65,0,.24.24,0,0,1,.09-.08l.13-.06c-1.89-.25-3.67-1-4.41-2.26-.1-.16-.19-.19-.32-.16l-.4.07Z"/><path class="cls-1" d="M11.33,47.23a8.94,8.94,0,0,1-3.46-1,1,1,0,0,1-.26.28,9.12,9.12,0,0,0,3.34,1A2.16,2.16,0,0,1,11.33,47.23Z"/><path class="cls-1" d="M1.49,24a3.07,3.07,0,0,1,1.42-2.49,6.6,6.6,0,0,0,1.78-2.42,5.19,5.19,0,0,0,0-4.58,2.6,2.6,0,0,0-.25-.31l.45-.09-.26-.33L3,14.08c1.72-.42,2.48,2.33,1.4,4.83a6.09,6.09,0,0,1-1.68,2.27,4.67,4.67,0,0,0-1.21,1.39,3.68,3.68,0,0,0-.15.41,1.7,1.7,0,0,0,.19,1.25Z"/><path class="cls-1" d="M7.43,44.76l-.09-.09-.08-.09h0l-.11-.11h0L7,44.33l0,0-.12-.14,0,0A1.83,1.83,0,0,0,6.73,44h0l-.14-.19h0c0-.06-.09-.12-.13-.19l0,0-.14-.21h0c0-.07-.09-.15-.14-.23h0L6,42.9v0l-.12-.24h0c0-.09-.07-.18-.11-.26h0a2,2,0,0,1-.09-.26l0,0c0-.09,0-.18-.07-.27v0a2.8,2.8,0,0,1-.06-.28h0v0s0-.08,0-.11v-.07l0-.37h0V40.6h0v-.05c0-.5-.23-1.08-1.22-.82l.25.51c.31-.05.85-.06.93.3a.53.53,0,0,1,0,.31.76.76,0,0,1-.18.24l0,0a.92.92,0,0,1-.21.13h0l-.16,0-.25.06h0a.83.83,0,0,1-.34,0h0a.73.73,0,0,1-.28-.19c-.29-.34.08-1.77.08-1.77h0l0-.15v0c.12-.53.19-.92.27-1.29.13-.65.24-1.21.49-2.31a4.27,4.27,0,0,0-1-4.1,1.61,1.61,0,0,1-.24.28,3.91,3.91,0,0,1,.92,3.73c-.39,1.73-.44,2.11-.75,3.62a5.1,5.1,0,0,0-.12.61v0s0,.08,0,.21v0h0a1.23,1.23,0,0,0,0,.2,3.07,3.07,0,0,0,0,1.08v0h0l0,.2v0l0,.17,0,.06a.36.36,0,0,0,0,.1.36.36,0,0,1,0,.1l0,.12,0,.12,0,.09a1,1,0,0,0,0,.16l0,.08.06.18,0,.07a1.67,1.67,0,0,0,.08.2l0,0L4,43.2l0,0c0,.07.07.15.11.23l0,.05c0,.08.08.16.13.24l0,0,.14.25h0a2.33,2.33,0,0,0,.17.26l0,.05.18.26,0,0,.2.27,0,0a2.47,2.47,0,0,0,.21.27l0,0,.23.27,0,0,.24.28,0,0h0l.28.29a1.13,1.13,0,0,0,.61.3,1,1,0,0,0,1.06-.88A1,1,0,0,0,7.43,44.76Z"/><path class="cls-1" d="M26.21,21.07a.79.79,0,0,0-.75-.79H18.54a.52.52,0,0,1-.48.35h-.82a.5.5,0,0,1-.47-.35H9.46a.78.78,0,0,0-.73.8c0,.3,0,.68,0,1.1a.5.5,0,0,1,.25.43v.82a.52.52,0,0,1-.24.43c0,1.69,0,3.79,0,5.95a.5.5,0,0,1,.25.43v.82a.52.52,0,0,1-.26.44c0,1.86,0,3.69,0,5.28,0,.51,0,1,0,1.44a.51.51,0,0,1,.29.46v.81a.49.49,0,0,1-.3.46v1.23c0,1.29,1.47,1.61,3.32,1.85a.48.48,0,0,1,.5-.26l.81.1a.5.5,0,0,1,.43.38,8.28,8.28,0,0,1,3.8,1.19,6.43,6.43,0,0,1,3.7-1.26.5.5,0,0,1,.43-.38l.82-.09A.49.49,0,0,1,23,43c1.94-.19,3.1-.5,3.1-1.91V40a.5.5,0,0,1-.29-.46v-.81a.5.5,0,0,1,.29-.46c0-1.85,0-4.25,0-6.69a.49.49,0,0,1-.32-.47v-.82a.5.5,0,0,1,.33-.47c0-2.14,0-4.21,0-5.9a.51.51,0,0,1-.25-.44v-.82a.5.5,0,0,1,.26-.44v-1.1ZM22.87,41.83A6.79,6.79,0,0,1,20.8,42s-2.15-.07-3.16,1.13h0c-1-1.19-3.32-1.1-3.32-1.1a8.71,8.71,0,0,1-1.6-.07,2.72,2.72,0,0,1-.84-.25,2.9,2.9,0,0,1-1.42-2.59V36.85l0-14.39a.64.64,0,0,1,.59-.64l13-.06a.63.63,0,0,1,.59.63V39.07A2.83,2.83,0,0,1,22.87,41.83Z"/><path class="cls-1" d="M28.16,19a.62.62,0,0,0-.58-.63H7.31a.62.62,0,0,0-.58.63V41.27a3.7,3.7,0,0,0,2.65,3.45,1.67,1.67,0,0,0,.32.08,12.46,12.46,0,0,0,2.91.16s3.52,0,4.94,1.76h0c1.41-1.76,4.93-1.8,4.93-1.8a12.15,12.15,0,0,0,2.79-.17c.11,0,.25-.07.36-.1a3.54,3.54,0,0,0,2.51-3.48ZM27,23.43a.5.5,0,0,1-.33.47c0,1.7,0,3.77,0,5.91a.5.5,0,0,1,.25.43v.82a.52.52,0,0,1-.26.44c0,2.45,0,4.86,0,6.72a.51.51,0,0,1,.29.46v.81a.49.49,0,0,1-.3.46v1.16c0,1.84-1.64,2.17-3.55,2.34a.48.48,0,0,1-.38.26l-.81.09a.52.52,0,0,1-.47-.2,5.73,5.73,0,0,0-3.62,1.28l-.13.14-.16-.13a7.41,7.41,0,0,0-3.75-1.22.5.5,0,0,1-.47.2l-.81-.1a.48.48,0,0,1-.4-.31c-2-.26-3.73-.64-3.73-2.28,0-.28,0-.7,0-1.23A.5.5,0,0,1,8,39.49v-.81a.5.5,0,0,1,.29-.46c0-.45,0-.93,0-1.44,0-1.58,0-3.4,0-5.25A.49.49,0,0,1,8,31.06v-.82a.5.5,0,0,1,.33-.47c0-2.13,0-4.19,0-5.86A.51.51,0,0,1,8,23.43v-.82a.51.51,0,0,1,.33-.47c0-.41,0-.76,0-1.06a1.2,1.2,0,0,1,1.15-1.22h7.37a.48.48,0,0,1,.42-.24h.82a.5.5,0,0,1,.43.24h7a1.2,1.2,0,0,1,1.16,1.21v1.07a.53.53,0,0,1,.32.47Z"/><rect class="cls-2" x="112.12" y="12.1" width="0.53" height="36.1"/><rect class="cls-2" x="190.09" y="12.1" width="0.53" height="36.1"/></g></g></svg>