<svg xmlns="http://www.w3.org/2000/svg" xmlns:xlink="http://www.w3.org/1999/xlink" viewBox="0 0 346.2 75.55"><defs><style>.cls-1{isolation:isolate;}.cls-2{fill:#2a3178;}.cls-3{fill:#b92130;}.cls-13,.cls-4{fill:#1d1f1c;}.cls-5{fill:url(#Degradado_sin_nombre_3);}.cls-6{fill:url(#Degradado_sin_nombre_3-2);}.cls-7{fill:url(#Degradado_sin_nombre_3-3);}.cls-8{fill:url(#Degradado_sin_nombre_3-4);}.cls-9{fill:url(#Degradado_sin_nombre_11);}.cls-10{fill:url(#Degradado_sin_nombre_10);}.cls-11{fill:url(#Degradado_sin_nombre_9);}.cls-12{fill:url(#Degradado_sin_nombre_4);}.cls-13{opacity:0.31;}.cls-13,.cls-14,.cls-15{mix-blend-mode:multiply;}.cls-14{fill:#e29b01;opacity:0.69;}.cls-15{fill:#0a7b80;opacity:0.57;}.cls-16,.cls-18,.cls-51{fill:none;}.cls-17{fill:url(#Degradado_sin_nombre_3-5);}.cls-18{stroke:#060807;stroke-width:1.03px;opacity:0.5;}.cls-18,.cls-51{stroke-miterlimit:10;}.cls-19,.cls-26{fill:#ecc77e;}.cls-20,.cls-28{fill:#6faa3a;}.cls-21,.cls-24{fill:#283375;}.cls-22{fill:#b39017;}.cls-23{fill:#d39104;}.cls-24,.cls-25,.cls-26,.cls-28,.cls-35,.cls-36,.cls-37,.cls-38,.cls-39,.cls-48,.cls-52{fill-rule:evenodd;}.cls-25,.cls-33{fill:#d93119;}.cls-27{fill:#f4c560;}.cls-29{fill:#005085;}.cls-30{fill:#c48b06;}.cls-31{fill:#807549;}.cls-32,.cls-37{fill:#233a80;}.cls-34{fill:#8b1d15;}.cls-35{fill:#fff;}.cls-36,.cls-49{fill:#368035;}.cls-38{fill:#1a162d;}.cls-39{fill:#1a152c;}.cls-40{fill:#a8a8a8;}.cls-41{fill:#7d7e7f;}.cls-42{fill:#b2b2b1;}.cls-43{fill:gray;}.cls-44{fill:#acabab;}.cls-45{fill:#888;}.cls-46,.cls-52{fill:#d50a20;}.cls-47{fill:#9d9b99;}.cls-48{fill:#030304;}.cls-50{fill:#d0d0d1;}.cls-51{stroke:#f4c560;stroke-width:0.85px;}</style><linearGradient id="Degradado_sin_nombre_3" x1="342.16" y1="29.87" x2="311.21" y2="29.87" gradientUnits="userSpaceOnUse"><stop offset="0" stop-color="#135995"/><stop offset="1" stop-color="#2784c4"/></linearGradient><linearGradient id="Degradado_sin_nombre_3-2" x1="337.9" y1="44.94" x2="309.48" y2="44.94" xlink:href="#Degradado_sin_nombre_3"/><linearGradient id="Degradado_sin_nombre_3-3" x1="292.74" y1="34.85" x2="285.35" y2="45.49" xlink:href="#Degradado_sin_nombre_3"/><linearGradient id="Degradado_sin_nombre_3-4" x1="278.6" y1="24.92" x2="271.95" y2="34.51" xlink:href="#Degradado_sin_nombre_3"/><linearGradient id="Degradado_sin_nombre_11" x1="311.6" y1="25.82" x2="329.57" y2="19.57" gradientUnits="userSpaceOnUse"><stop offset="0" stop-color="#0d75ad"/><stop offset="1" stop-color="#d20d1d"/></linearGradient><linearGradient id="Degradado_sin_nombre_10" x1="278.25" y1="20.33" x2="307.96" y2="43.42" gradientUnits="userSpaceOnUse"><stop offset="0" stop-color="#2784c4"/><stop offset="0.49" stop-color="#e58047"/><stop offset="0.9" stop-color="#cc131e"/></linearGradient><linearGradient id="Degradado_sin_nombre_9" x1="301.68" y1="25.13" x2="331.19" y2="13.59" gradientUnits="userSpaceOnUse"><stop offset="0" stop-color="#e2801c"/><stop offset="0.7" stop-color="#f5c209"/></linearGradient><linearGradient id="Degradado_sin_nombre_4" x1="305.16" y1="40.5" x2="346.04" y2="40.5" gradientUnits="userSpaceOnUse"><stop offset="0" stop-color="#cc131e"/><stop offset="1" stop-color="#e58047"/></linearGradient><linearGradient id="Degradado_sin_nombre_3-5" x1="276.59" y1="31.99" x2="269.94" y2="41.57" xlink:href="#Degradado_sin_nombre_3"/></defs><title>LogoMunicipioColor</title><g class="cls-1"><g id="Capa_2" data-name="Capa 2"><g id="Capa_1-2" data-name="Capa 1"><path class="cls-2" d="M170.27,24.55a4.66,4.66,0,0,0-3.86,1.83A7.6,7.6,0,0,0,165,31.2,7.55,7.55,0,0,0,166.4,36a4.94,4.94,0,0,0,7.54.06,7.41,7.41,0,0,0,1.4-4.79A8,8,0,0,0,174,26.36a4.38,4.38,0,0,0-3.73-1.81M173.93,41a11,11,0,0,0,1.41,1.31,6.5,6.5,0,0,0,1.35.82,5.46,5.46,0,0,0,1.4.41,9.29,9.29,0,0,0,1.55.12l.5,0a5.21,5.21,0,0,0,.55-.08l.54-.11a2.88,2.88,0,0,0,.47-.15v3.89a12.08,12.08,0,0,1-1.26.25,12.31,12.31,0,0,1-2,.13,7,7,0,0,1-2.58-.46,9.44,9.44,0,0,1-2.25-1.25A16.26,16.26,0,0,1,171.53,44c-.68-.71-1.38-1.48-2.12-2.3a9.43,9.43,0,0,1-3.81-.87,9,9,0,0,1-2.93-2.2,9.67,9.67,0,0,1-1.88-3.23,11.85,11.85,0,0,1-.66-4,11,11,0,0,1,2.8-7.86,9.78,9.78,0,0,1,7.5-3,9.21,9.21,0,0,1,7.06,2.89A10.5,10.5,0,0,1,180.2,31a11.57,11.57,0,0,1-1.66,6.31A8.83,8.83,0,0,1,173.93,41"/><path class="cls-2" d="M197.06,41.42h-4.5V39.19h-.07A5.12,5.12,0,0,1,188,41.77q-5.09,0-5.09-6.16V26.78h4.5v8.43c0,2.07.82,3.1,2.46,3.1a2.41,2.41,0,0,0,1.94-.85,3.38,3.38,0,0,0,.73-2.3V26.78h4.5Z"/><rect class="cls-2" x="200.86" y="26.84" width="4.52" height="14.58"/><path class="cls-2" d="M218,41.24a6.54,6.54,0,0,1-3,.53q-4.77,0-4.77-5v-6.7h-2.38V26.78h2.38V23.63l4.5-1.29v4.44H218v3.33h-3.28V36c0,1.52.6,2.28,1.81,2.28A3,3,0,0,0,218,37.9Z"/><path class="cls-2" d="M227.65,29.88a3,3,0,0,0-2.48,1.1,4.89,4.89,0,0,0-.89,3.12q0,4.21,3.4,4.21,3.24,0,3.24-4.32,0-4.11-3.27-4.11m-.11,11.89a7.84,7.84,0,0,1-5.75-2.05,7.4,7.4,0,0,1-2.1-5.56,7.42,7.42,0,0,1,2.18-5.68,8.17,8.17,0,0,1,5.87-2.05,7.74,7.74,0,0,1,5.71,2.05,7.24,7.24,0,0,1,2.08,5.42,7.76,7.76,0,0,1-2.14,5.76,7.93,7.93,0,0,1-5.85,2.11"/><path class="cls-3" d="M187.12,47.12v8h1.42a3.91,3.91,0,0,0,2.93-1.1,4.16,4.16,0,0,0,1.06-3,3.75,3.75,0,0,0-1.05-2.82,4,4,0,0,0-3-1Zm-2.87,10.26V44.81h4.51q6.8,0,6.79,6.13a6.14,6.14,0,0,1-1.85,4.68,6.9,6.9,0,0,1-4.94,1.76Z"/><path class="cls-3" d="M198.81,47.88a1.64,1.64,0,0,1-1.16-.42,1.32,1.32,0,0,1-.46-1,1.28,1.28,0,0,1,.46-1,1.94,1.94,0,0,1,2.33,0,1.3,1.3,0,0,1,.45,1,1.32,1.32,0,0,1-.45,1,1.69,1.69,0,0,1-1.17.41"/><rect class="cls-3" x="197.39" y="48.4" width="2.81" height="8.97"/><path class="cls-3" d="M208.7,53.07v-.71a2.16,2.16,0,0,0-.51-1.45,1.65,1.65,0,0,0-1.32-.6,1.72,1.72,0,0,0-1.47.71,3.33,3.33,0,0,0-.53,2,2.84,2.84,0,0,0,.5,1.77,1.66,1.66,0,0,0,1.39.66,1.74,1.74,0,0,0,1.41-.67,2.71,2.71,0,0,0,.53-1.74m2.78,3.28A5,5,0,0,1,210,60.22a6,6,0,0,1-4.25,1.37,6.74,6.74,0,0,1-2.91-.52V58.74a5.63,5.63,0,0,0,2.83.81,3.11,3.11,0,0,0,2.21-.74,2.64,2.64,0,0,0,.78-2v-.71h0a3.15,3.15,0,0,1-2.83,1.51A3.44,3.44,0,0,1,203,56.39a4.88,4.88,0,0,1-1-3.25,5.38,5.38,0,0,1,1.13-3.61,3.73,3.73,0,0,1,3-1.35,2.78,2.78,0,0,1,2.48,1.27h0V48.4h2.81Z"/><path class="cls-3" d="M222.6,57.38h-2.79v-5c0-1.39-.51-2.08-1.51-2.08a1.49,1.49,0,0,0-1.2.55,2,2,0,0,0-.47,1.4v5.12h-2.81v-9h2.81v1.42h0a3.24,3.24,0,0,1,2.92-1.64c2,0,3,1.24,3,3.7Z"/><path class="cls-3" d="M229.23,50.31a1.86,1.86,0,0,0-1.54.67,2.94,2.94,0,0,0-.55,1.91c0,1.72.7,2.58,2.11,2.58s2-.88,2-2.65-.67-2.51-2-2.51m-.07,7.29a4.89,4.89,0,0,1-3.57-1.26,5.14,5.14,0,0,1,0-6.9,5.14,5.14,0,0,1,3.65-1.26,4.88,4.88,0,0,1,3.56,1.26,4.44,4.44,0,0,1,1.29,3.33,4.74,4.74,0,0,1-1.33,3.53,5,5,0,0,1-3.64,1.3"/><path class="cls-2" d="M184.68,23V24.8h-1.16V19.65h1.81c1.3,0,1.95.55,1.95,1.64a1.59,1.59,0,0,1-.56,1.26,2.25,2.25,0,0,1-1.49.47Zm0-2.48v1.6h.45q.93,0,.93-.81c0-.52-.31-.79-.93-.79Z"/><path class="cls-2" d="M189.67,24.89a2,2,0,0,1-1.44-.52,1.87,1.87,0,0,1-.53-1.4,1.84,1.84,0,0,1,.55-1.42,2,2,0,0,1,1.47-.52,1.94,1.94,0,0,1,1.44.52,1.84,1.84,0,0,1,.52,1.36,1.92,1.92,0,0,1-.54,1.44A2,2,0,0,1,189.67,24.89Zm0-3a.75.75,0,0,0-.63.28,1.25,1.25,0,0,0-.22.78c0,.7.29,1.06.86,1.06s.81-.36.81-1.09S190.25,21.9,189.7,21.9Z"/><path class="cls-2" d="M194.81,22.14a1.06,1.06,0,0,0-.48-.11.69.69,0,0,0-.58.27,1.2,1.2,0,0,0-.21.74V24.8h-1.13V21.12h1.13v.68h0a1,1,0,0,1,1-.74.72.72,0,0,1,.28,0Z"/><path class="cls-2" d="M200.85,24.8h-1.13v-.56h0a1.3,1.3,0,0,1-1.13.65c-.85,0-1.27-.52-1.27-1.55V21.12h1.13v2.12c0,.52.2.78.61.78a.59.59,0,0,0,.49-.22.86.86,0,0,0,.18-.58v-2.1h1.13Z"/><path class="cls-2" d="M205.36,24.8h-1.13V22.75c0-.56-.21-.85-.61-.85a.62.62,0,0,0-.49.23.84.84,0,0,0-.19.57v2.1h-1.13V21.12h1.13v.58h0a1.31,1.31,0,0,1,1.18-.67c.81,0,1.22.51,1.22,1.52Z"/><path class="cls-4" d="M268.58,54.05H271a2.35,2.35,0,0,1,1.73.74,2.44,2.44,0,0,1,.72,1.78,2,2,0,0,1-.18.83,2.28,2.28,0,0,1-.47.69,1.68,1.68,0,0,1,.62.82,3.09,3.09,0,0,1,.2,1.05,2.44,2.44,0,0,1-.72,1.78,2.32,2.32,0,0,1-1.72.74h-2.63ZM270,55.51v2h1.33a.59.59,0,0,0,.46-.31,1.13,1.13,0,0,0,.19-.63,1.1,1.1,0,0,0-.27-.76,1,1,0,0,0-.72-.3ZM270,59v2h1.17a.91.91,0,0,0,.7-.3,1,1,0,0,0,.28-.75,1.28,1.28,0,0,0-.19-.66.55.55,0,0,0-.45-.33Z"/><path class="cls-4" d="M276.11,62.48h-1.46V54.05h1.46Z"/><path class="cls-4" d="M283.78,60.45l1,1a4.54,4.54,0,1,1,0-6.41l-1,1a3,3,0,0,0-2.17-.89,3.08,3.08,0,0,0,0,6.15A3,3,0,0,0,283.78,60.45Z"/><path class="cls-4" d="M290.39,55.51h-3.31v2h2.75V59h-2.75v2h3.31v1.47h-4.77V54.05h4.77Z"/><path class="cls-4" d="M297.15,59.26V54.05h1.45V62.8l-5.47-5.53v5.21h-1.45V53.73Z"/><path class="cls-4" d="M304.3,55.51h-1.67v7h-1.45v-7h-1.67V54.05h4.79Z"/><path class="cls-4" d="M310,55.51H306.7v2h2.75V59H306.7v2H310v1.47h-4.78V54.05H310Z"/><path class="cls-4" d="M316.78,59.26V54.05h1.45V62.8l-5.47-5.53v5.21h-1.45V53.73Z"/><path class="cls-4" d="M327.47,62.48h-1.6l-.69-1.42h-3.91l-.7,1.42H319l4.28-8.75ZM322,59.59h2.47l-1.23-2.54Z"/><path class="cls-4" d="M328.2,54.05h2.37a2.49,2.49,0,0,1,1.84.77,2.57,2.57,0,0,1,.76,1.87,2.61,2.61,0,0,1-.4,1.42,2.57,2.57,0,0,1-1.08,1l2.24,3.41h-1.74l-2.07-3.16h-.46v3.16H328.2Zm1.46,1.46v2.35h.9a1.13,1.13,0,0,0,.83-.34,1.16,1.16,0,0,0,.34-.83,1.17,1.17,0,0,0-.34-.83,1.14,1.14,0,0,0-.83-.35Z"/><path class="cls-4" d="M336.2,62.48h-1.46V54.05h1.46Z"/><path class="cls-4" d="M338.5,55.06a4.53,4.53,0,1,1-1.33,3.2A4.35,4.35,0,0,1,338.5,55.06Zm5.35,1a3.07,3.07,0,0,0-5.23,2.17,3.07,3.07,0,0,0,3.07,3.08,2.93,2.93,0,0,0,2.16-.9,3.08,3.08,0,0,0,0-4.35Z"/><path class="cls-5" d="M338.55,25.85a15.36,15.36,0,0,0-2.85-3.32l.42.26a14.51,14.51,0,0,0-3.65-1.88A46,46,0,0,1,319.36,30l0,.08a11.48,11.48,0,0,0,2.19,2.11A6.24,6.24,0,0,1,323,29.55a6.85,6.85,0,0,1,9.81-.09,7.07,7.07,0,0,1,2.08,5.83,23.62,23.62,0,0,1,5.87,3.54,14.49,14.49,0,0,0,.79-4.73A13.92,13.92,0,0,0,338.55,25.85Z"/><path class="cls-6" d="M319.41,41A15.47,15.47,0,0,1,317,45.34a15.64,15.64,0,0,0,9.09,3.52,14.94,14.94,0,0,0,6.61-1.53,14.24,14.24,0,0,0,4.63-3.11c-3.41-1.29-8-2.18-14.5-2.74C321.61,41.38,320.49,41.23,319.41,41Z"/><path class="cls-7" d="M284.42,36.27,273.94,47.41h21.27a15.37,15.37,0,0,1-3.8-4.83H289.7l-5,3.24L290.4,40c0-.15-.09-.31-.13-.47v0a24.18,24.18,0,0,0-3.89-9.93h.05a6.9,6.9,0,0,0-.87-.52A6.48,6.48,0,0,1,284.42,36.27Z"/><path class="cls-8" d="M283.28,28.41a7.06,7.06,0,0,0-.42-.75,8.31,8.31,0,0,0-6.75-3.57l.17,0a15.09,15.09,0,0,0-5.17,1.55,12.38,12.38,0,0,0-2.63,5h7a8.11,8.11,0,0,1,7.08-2.33l.67.08"/><path class="cls-9" d="M339.73,11.13l-.1.09a11.67,11.67,0,0,1-1.8,1.56c-6.2,5.06-12.29,7-18.51,8.57-1.87.46-3.64,1-5.23,1.57a60,60,0,0,0-7.33,3.1l.25-.19a21.27,21.27,0,0,0-3.18,2.74c-.21.21-.41.42-.61.65a18.59,18.59,0,0,0,6.71,1,27.39,27.39,0,0,0,8.76-1.82c4.71-1.77,10.28-5,16.66-10.66A18.26,18.26,0,0,0,340,10.9Z"/><path class="cls-10" d="M311,38.35a6.33,6.33,0,0,1-1,1.32,6.49,6.49,0,0,1-1.69,1.2l.15-.06a6.37,6.37,0,0,1-3.58,1.1,6.31,6.31,0,0,1-5.48-9.63,3,3,0,0,0-.1.32,6.51,6.51,0,0,1,1-1.81,14.31,14.31,0,0,1-3.07-2.08c-2-1.72-4.66-5.36-8-7.1l-.11-.05a15.26,15.26,0,0,0-14.15.69l-.14.08-.29.19a14.61,14.61,0,0,0-3.39,3.08,15.09,15.09,0,0,1,5.17-1.55,7.81,7.81,0,0,1,6,1.14,4.93,4.93,0,0,1,1.3,1.07,10.08,10.08,0,0,1,1.23,1.42,8.82,8.82,0,0,1,.79,1.39,6.9,6.9,0,0,1,.87.52c.35.14,2.46,1.29,5.63,10a13.61,13.61,0,0,0,5.79,6.91,15.41,15.41,0,0,0,8,2.19,14.91,14.91,0,0,0,12-6A14.68,14.68,0,0,0,318.93,41l0,0A33.2,33.2,0,0,1,311,38.35Z"/><path class="cls-11" d="M327.37,13.07c-8.46,2.15-17.83,3.65-25.19,7.35a28.07,28.07,0,0,0-5.66,3.71c1.46,1.37,2.68,2.7,3.73,3.58a9.12,9.12,0,0,0,1.86,1.06c.16.08.33.15.51.22s.38.16.6.23c.2-.23.4-.44.61-.65A21.27,21.27,0,0,1,307,25.83a30.4,30.4,0,0,1,4.24-2.75c.57-.31,1.16-.6,1.76-.88a66.54,66.54,0,0,1,10.59-3.61c7-1.87,15.09-6.88,16.25-7.61l.15-.09A15.34,15.34,0,0,0,342.82,6C342.49,6.56,340,9.86,327.37,13.07Z"/><path d="M339.63,11.22l.1-.09.27-.24-.15.09c-1.16.73-9.29,5.74-16.25,7.61A66.54,66.54,0,0,0,313,22.2c-.6.28-1.19.57-1.76.88A30.4,30.4,0,0,0,307,25.83l-.25.19a60,60,0,0,1,7.33-3.1c1.59-.56,3.36-1.11,5.23-1.57,6.22-1.52,12.31-3.51,18.51-8.57A11.67,11.67,0,0,0,339.63,11.22Z"/><path d="M299.36,32.28a6.37,6.37,0,0,0,9.06,8.53l-.15.06a6.91,6.91,0,0,1-9.34-6.5,6.16,6.16,0,0,1,.33-1.77A3,3,0,0,1,299.36,32.28Z"/><path d="M281.72,28.44a8,8,0,0,1,.89-.11,8.11,8.11,0,0,0-7.08,2.33h-7s-.17.54-.32,1.25c-.05.28-.11.58-.15.89h8.47A7,7,0,0,1,281.72,28.44Z"/><path d="M346,51c-.07-.46-1.6-8.55-15.38-11-3.47-.6-6.14-.92-8.38-1.2-.88-.11-1.69-.22-2.46-.34a19.24,19.24,0,0,1-7-2.28c-.3-.16-.6-.35-.91-.54A35.85,35.85,0,0,1,308.31,33l-3.15-.85a25.41,25.41,0,0,0,6.12-.09q.87-.11,1.8-.27c.64-.11,1.3-.24,2-.4a25.38,25.38,0,0,0,4.27-1.4l.05.07,0-.08a46,46,0,0,0,13.11-9.1,50.48,50.48,0,0,0,3.61-3.82l-.73.65c-6.38,5.64-12,8.89-16.66,10.66a27.39,27.39,0,0,1-8.76,1.82,18.59,18.59,0,0,1-6.71-1c-.22-.07-.41-.15-.6-.23s-.35-.14-.51-.22a9.12,9.12,0,0,1-1.86-1.06c-1.05-.88-2.27-2.21-3.73-3.58a28.07,28.07,0,0,1,5.66-3.71c7.36-3.7,16.73-5.2,25.19-7.35C340,9.86,342.49,6.56,342.82,6a.44.44,0,0,0,.05-.09,232,232,0,0,0-35.53,10.44,40.26,40.26,0,0,0-11.77,6.91,15.26,15.26,0,0,0-17.37-3.39,23.44,23.44,0,0,1-5.13,1.41,89.81,89.81,0,0,1-10.05.34c-8.92.06,1.83.59,1.83.59,4.34.12,9.27.56,9.27.56l.38-.25.29-.19.14-.08c.23-.15.47-.28.71-.41l.41-.21.3-.14a15.34,15.34,0,0,1,12.31-.12c.14.06.29.12.42.19l.11.05c3.38,1.74,6.05,5.38,8,7.1a14.31,14.31,0,0,0,3.07,2.08c.4.19.83.38,1.31.56a27.34,27.34,0,0,0,9.32,7l.06,0a33.2,33.2,0,0,0,8,2.6l0,0a14.68,14.68,0,0,1-1.06,1.63,14.91,14.91,0,0,1-12,6,15.41,15.41,0,0,1-8-2.19,13.61,13.61,0,0,1-5.79-6.91c-3.17-8.66-5.28-9.81-5.63-9.95h-.05a24.18,24.18,0,0,1,3.89,9.93v0c0,.16.09.32.13.47l-5.68,5.82,5-3.24h1.71a15.37,15.37,0,0,0,3.8,4.83H273.94l10.48-11.14a6.48,6.48,0,0,0,1.14-7.2,8.82,8.82,0,0,0-.79-1.39,10.08,10.08,0,0,0-1.23-1.42,4.93,4.93,0,0,0-1.3-1.07,7.81,7.81,0,0,0-6-1.14l-.17,0a8.31,8.31,0,0,1,6.75,3.57,7.06,7.06,0,0,1,.42.75c2,4.15-1.64,7.57-1.64,7.57-4.13,4-13.53,14.22-13.53,14.22h32A15.3,15.3,0,0,0,317,45.36v0c2.79,3.08,6.9,5.52,11.37,5.52A15.2,15.2,0,0,0,340,45.44,17.27,17.27,0,0,1,346,51h0Zm-13.34-3.64a14.94,14.94,0,0,1-6.61,1.53A15.64,15.64,0,0,1,317,45.34,15.47,15.47,0,0,0,319.41,41c1.08.2,2.2.35,3.39.45,6.51.56,11.09,1.45,14.5,2.74A14.24,14.24,0,0,1,332.67,47.33Z"/><path d="M336.12,22.79l-.42-.26a15.36,15.36,0,0,1,2.85,3.32,13.92,13.92,0,0,1,2.95,8.25,14.49,14.49,0,0,1-.79,4.73,23.62,23.62,0,0,0-5.87-3.54,7.07,7.07,0,0,0-2.08-5.83,6.85,6.85,0,0,0-9.81.09,6.18,6.18,0,0,0-1.37,2.65l0,0h0a7.07,7.07,0,0,1,.89-1.44s0,0,.05-.05a6.54,6.54,0,0,1,9.44-.11A6.89,6.89,0,0,1,334,35a7.09,7.09,0,0,1-.11,1.95l.5.16c.4.13.93.32,1.55.58A21.42,21.42,0,0,1,340.22,40a18.45,18.45,0,0,1,2,1.7,17.79,17.79,0,0,1,3.1,4.32v0a10.34,10.34,0,0,0-2.71-5.3,14.91,14.91,0,0,0-6.54-17.94Z"/><path class="cls-12" d="M345.37,46v0a17.79,17.79,0,0,0-3.1-4.32,18.45,18.45,0,0,0-2-1.7A21.42,21.42,0,0,0,336,37.64c-5.21-2-10.54-2.6-14.36-5.41h0l0,0h0a11.94,11.94,0,0,1-2.17-2.1l-.05-.07a25.38,25.38,0,0,1-4.27,1.4c-.69.16-1.35.29-2,.4s-1.22.2-1.8.27a25.41,25.41,0,0,1-6.12.09l3.15.85a35.85,35.85,0,0,0,3.59,2.61c.31.19.61.38.91.54a19.24,19.24,0,0,0,7,2.28c.77.12,1.58.23,2.46.34,2.24.28,4.91.6,8.38,1.2,13.78,2.42,15.31,10.51,15.38,11A13.84,13.84,0,0,0,345.37,46Z"/><path class="cls-13" d="M288.29,22.73c3.63,2.78,6.78,7.58,11,9.56h0l0,0a6.76,6.76,0,0,1,.92-1.53,14,14,0,0,1-3.07-2.07c-2-1.72-4.66-5.37-8-7.1l-.1-.06a16,16,0,0,0-9.38-1.16A12.79,12.79,0,0,1,288.29,22.73Z"/><path class="cls-14" d="M316.3,17.57c12-4,18.26-4,24.3-9.57-2.08,1.36-6,3.23-13.23,5.07-8.46,2.15-17.83,3.65-25.19,7.35a28.07,28.07,0,0,0-5.66,3.71c1.46,1.37,2.68,2.7,3.73,3.58a9.74,9.74,0,0,0,1.86,1.06l.51.22.6.23S303.16,21.94,316.3,17.57Z"/><path class="cls-15" d="M306.77,26a57.57,57.57,0,0,1,7.32-3.1c1.59-.56,3.36-1.11,5.23-1.57,5.62-1.38,11.14-3.14,16.72-7.2-3.65,4.11-8.35,7.5-16.15,9.6-6.87,1.84-9.93,5.36-10.76,6.47a18.16,18.16,0,0,1-5.91-1A21.38,21.38,0,0,1,306.77,26Z"/><path class="cls-13" d="M319,41a33.2,33.2,0,0,1-8-2.6,6.33,6.33,0,0,1-1,1.32l-.18.16A12.92,12.92,0,0,0,318,42.49a16.45,16.45,0,0,0,1-1.49Z"/><path class="cls-13" d="M322.8,41.48c-1.19-.1-2.31-.25-3.39-.45a16.15,16.15,0,0,1-1.54,3,41.64,41.64,0,0,1,17.93,1.45,13.4,13.4,0,0,0,1.5-1.31C333.89,42.93,329.31,42,322.8,41.48Z"/><path class="cls-13" d="M334.47,21.78a14.22,14.22,0,0,0-2-.87A46,46,0,0,1,319.36,30l0,.08a11.62,11.62,0,0,0,2.17,2.1,6,6,0,0,1,.28-.77A5.08,5.08,0,0,1,323,29.55a6.8,6.8,0,0,1,4.6-2.1A20.44,20.44,0,0,0,334.47,21.78Z"/><path class="cls-16" d="M276.44,32.59l-.26-.05-.07,0Z"/><path class="cls-13" d="M282.61,28.33l.67.08a7.06,7.06,0,0,0-.42-.75,8.22,8.22,0,0,0-6.42-3.54c.93.22,2.93,1,4.34,4.13A7.07,7.07,0,0,1,282.61,28.33Z"/><path class="cls-17" d="M276.28,32.52l-.14,0h0Z"/><path class="cls-13" d="M276.28,32.52l-.14,0h0Z"/><path class="cls-13" d="M289.62,40.81l.78-.81c0-.15-.09-.31-.13-.47v0a24.18,24.18,0,0,0-3.89-9.93h.05a6.9,6.9,0,0,0-.87-.52l0,.1.16.31A25,25,0,0,1,289.62,40.81Z"/><path class="cls-13" d="M291.41,42.58h-1.49a13.94,13.94,0,0,0,2.66,4.83h2.63A15.37,15.37,0,0,1,291.41,42.58Z"/><line class="cls-18" x1="149.14" y1="15.51" x2="149.14" y2="63.01"/><line class="cls-18" x1="251.68" y1="15.51" x2="251.68" y2="63.01"/><path class="cls-19" d="M44,28.7a8.41,8.41,0,0,1-2.27-3.07c-1.47-3.4-.43-7.12,1.9-6.55l-5-1L38,18c-.18,0-.31,0-.44.22-2.18,3.79-10.85,3.94-13.7,1.86v-.37l0,0a1.45,1.45,0,0,1-.18.17,1.54,1.54,0,0,1-.19-.17l0,0v.37C20.59,22.14,11.92,22,9.73,18.2c-.13-.22-.26-.26-.44-.22l-.58.11-5,1c2.33-.57,3.37,3.15,1.9,6.55A8.33,8.33,0,0,1,3.31,28.7a4.79,4.79,0,0,0-2.1,3.78l0,1.82L2.79,42l1,.74c1.51.84,2.2,3.14,1.7,5.38S4.94,51,4.51,53a11.2,11.2,0,0,0-.26,2,7.43,7.43,0,0,0,.87,3.26,12.26,12.26,0,0,0,10.5,6.28l3.65.26a4.63,4.63,0,0,1,3,1.2c.23-.18.48-.39.7-.59l0,0,.18-.24.26.28a12.06,12.06,0,0,0,1.15.93A4.56,4.56,0,0,1,28,64.81l3.65-.26a12.26,12.26,0,0,0,10.5-6.28A7.4,7.4,0,0,0,43,55a10.19,10.19,0,0,0-.26-2c-.42-2-.5-2.56-1-4.89s.2-4.54,1.71-5.38l1-.74,1.56-7.73,0-1.82A4.8,4.8,0,0,0,44,28.7Z"/><path class="cls-20" d="M27.88,63.87l.05-.09a1.82,1.82,0,0,1,.16-.31l.1-.14s-.28.07-.39.08c-1.08.12-1.15,1-1.32,1,.17-.21.08-.56.24-.93a2.77,2.77,0,0,1,.26-.48l.14-.22-.59.12c-.77.17-2,1.11-2,1.79a3.52,3.52,0,0,0-1.16-.11h0a3.52,3.52,0,0,0-1.16.11c0-.68-1.27-1.62-2-1.79l-.59-.12.14.22a2.77,2.77,0,0,1,.26.48c.16.37.07.72.24.93-.17,0-.24-.93-1.32-1-.11,0-.39-.08-.39-.08l.09.14a1.34,1.34,0,0,1,.17.31l.05.09c-4.67-1.14-5.17,2.92-4.8,3.95A1.83,1.83,0,0,0,15.76,69c-1.44-.81-1.15-2.89.9-3.07,1.21-.13,2.59.63,4,.82l.73-.14A7.5,7.5,0,0,0,23,65.42l0,0,.18-.24.26.28a7.52,7.52,0,0,0,1.61,1.2l.75.16c1.47-.16,2.9-1,4.15-.84,2,.18,2.34,2.26.9,3.07a1.83,1.83,0,0,0,1.78-1.19C33.05,66.79,32.55,62.73,27.88,63.87Z"/><path class="cls-19" d="M28.32,68.67a.79.79,0,0,0-.92-.73L25.14,68,25,69.18l0,.49c-.48-.06-.93-.27-.86-1a1.71,1.71,0,0,1,.3-.89,2.41,2.41,0,0,1,.56-.61,8.23,8.23,0,0,1-1.78-1.28h0a8.23,8.23,0,0,1-1.78,1.28,2.41,2.41,0,0,1,.56.61,1.71,1.71,0,0,1,.3.89c.07.72-.39.93-.86,1l0-.49L21.36,68l-2.26-.06a.79.79,0,0,0-.92.73,1.89,1.89,0,0,0,.7,1.74,5.64,5.64,0,0,0,2.55.58c.64.07,1.46.09,1.48.87v.06h.68v-.06c0-.78.84-.8,1.47-.87a5.65,5.65,0,0,0,2.56-.58A1.91,1.91,0,0,0,28.32,68.67Z"/><path class="cls-21" d="M19.7,68.83c0-.49-.29-.88-.64-.88h2.25c.35,0,.64.39.64.88s-.29.87-.64.87H19.06C19.41,69.7,19.7,69.31,19.7,68.83Z"/><path class="cls-22" d="M19.06,69.53h0Z"/><path class="cls-23" d="M19.06,69.7c-.36,0-.64-.39-.64-.87H19.7C19.7,69.31,19.41,69.7,19.06,69.7Z"/><path class="cls-22" d="M27.5,68h0Z"/><path class="cls-21" d="M26.8,68.83c0-.49.28-.88.64-.88H25.19c-.35,0-.64.39-.64.88s.29.87.64.87h2.25C27.08,69.7,26.8,69.31,26.8,68.83Z"/><path class="cls-22" d="M27.44,69.7h0Z"/><path class="cls-23" d="M27.44,69.7c.35,0,.64-.39.64-.87H26.8C26.8,69.31,27.08,69.7,27.44,69.7Z"/><path class="cls-24" d="M27,19.86s-1.27,1.21-1.29,1.25-.27.87-.27.87l2.83.26s0-1.31,0-1.44a2.05,2.05,0,0,0-.23-.63,1.22,1.22,0,0,0-.29-.24l-.41-.14H27"/><path class="cls-21" d="M44.67,60.55a.34.34,0,0,0,.34-.34l0-17.48a.34.34,0,0,0-.34-.34.35.35,0,0,0-.34.35l0,17.47a.34.34,0,0,0,.34.34"/><path class="cls-25" d="M46.43,48.49a.81.81,0,0,0-1.06-.26.82.82,0,1,0-1.41,0,.82.82,0,0,0-1,.13.82.82,0,0,0,1,1.28.82.82,0,0,0,.13,1,.83.83,0,0,0,1.16,0,.82.82,0,0,0,.12-1,.81.81,0,0,0,1.1-1.15Zm-2.2.83a.83.83,0,0,0,0-.82.79.79,0,0,0,.81,0,.81.81,0,0,0,0,.81A.81.81,0,0,0,44.23,49.32Z"/><path class="cls-26" d="M45,49.28a.52.52,0,1,1,0-.73A.52.52,0,0,1,45,49.28Z"/><path class="cls-27" d="M43.42,61.93a1.23,1.23,0,1,1,1.22,1.22A1.23,1.23,0,0,1,43.42,61.93Z"/><path class="cls-28" d="M44.6,59.53s1.45-.32,2.4,2a3.74,3.74,0,0,0,.34.62l.19.28-.78-.15a3,3,0,0,1-2.23-2.06c0-.09,0-.65.08-.68"/><path class="cls-28" d="M44.69,59.53s-1.45-.32-2.4,2a3.74,3.74,0,0,1-.34.62l-.19.28.78-.15a3,3,0,0,0,2.23-2.06c0-.09,0-.65-.08-.68"/><path class="cls-21" d="M2.91,60.55a.34.34,0,0,0,.34-.34L3.19,42.73a.34.34,0,1,0-.67,0l0,17.47a.34.34,0,0,0,.34.34"/><path class="cls-25" d="M4.67,48.49a.82.82,0,0,0-1.07-.26.81.81,0,0,0-1.28-1,.83.83,0,0,0-.13,1,.81.81,0,0,0-1,.13.82.82,0,0,0,1,1.28.81.81,0,0,0,.13,1,.82.82,0,0,0,1.15,0,.8.8,0,0,0,.13-1,.81.81,0,0,0,1.1-1.15Zm-2.2.83a.83.83,0,0,0,0-.82.8.8,0,0,0,.82,0,.81.81,0,0,0,0,.81A.81.81,0,0,0,2.47,49.32Z"/><path class="cls-26" d="M3.25,49.28a.52.52,0,1,1,0-.73A.51.51,0,0,1,3.25,49.28Z"/><path class="cls-27" d="M1.66,61.93a1.23,1.23,0,1,1,1.22,1.22A1.22,1.22,0,0,1,1.66,61.93Z"/><path class="cls-28" d="M2.84,59.53s1.45-.32,2.39,2a3.79,3.79,0,0,0,.35.62l.18.28L5,62.27a3,3,0,0,1-2.23-2.06c0-.09,0-.65.08-.68"/><path class="cls-28" d="M2.92,59.53s-1.44-.32-2.39,2a3.74,3.74,0,0,1-.34.62L0,62.42l.78-.15A3,3,0,0,0,3,60.21c0-.09,0-.65-.08-.68"/><path class="cls-29" d="M4.17,19a1.56,1.56,0,0,0-1.54,1.58A1.33,1.33,0,0,0,4.16,22h0l1.7-.4a4,4,0,0,0-.33-1.67A1.6,1.6,0,0,0,4.22,19Z"/><path class="cls-30" d="M4,22a.85.85,0,0,0,.7-.9.89.89,0,0,0-.87-.9l1.92-.38a2.76,2.76,0,0,1,.4,1.68l-2,.48Z"/><path class="cls-29" d="M9.77,60.65c-.65-.61-2.85-2.93-2.69-5.71a1.14,1.14,0,0,1-1.34,1.12s-1.51.28-1.44-2c0,0-.86,3.84,3.74,8.55a1.64,1.64,0,0,0,.83.4,1.31,1.31,0,0,0,1.43-1.19A1.4,1.4,0,0,0,9.77,60.65Z"/><path class="cls-29" d="M4.55,41.42a1.69,1.69,0,0,1-1.66,1.72,1.66,1.66,0,0,1-1.64-1.76l0-9.08a1.72,1.72,0,0,0,1.68,1.8,1.71,1.71,0,0,0,1.67-1.69v9Z"/><path class="cls-30" d="M4.55,41.41a1.74,1.74,0,0,1-1.67,1.76A1.6,1.6,0,0,1,1.23,42v-.8a1.6,1.6,0,0,0,1.65,1.17A1.86,1.86,0,0,0,4.55,40.6Z"/><path class="cls-31" d="M2.93,34.09l0-2.58a1.21,1.21,0,0,1,1.67.86A1.67,1.67,0,0,1,2.93,34.09Z"/><path class="cls-30" d="M4.55,33.65c0,.65-.89,1.28-1.67,1.28a1.64,1.64,0,0,1-1.67-1.19v-1.3A1.61,1.61,0,0,0,2.88,34c.9,0,1.64-.46,1.62-1.17,0-.18,0-.28,0-.48Z"/><path class="cls-31" d="M5.41,54s.25,1.49.56,2.76l.83-.56L7,55.39l.05-.83-.89-.63Z"/><path class="cls-30" d="M7.08,54.94A1.36,1.36,0,0,1,5.7,56.06c-1.46-.15-1.45-1.48-1.34-2.22a4.74,4.74,0,0,0-.06,2,1.41,1.41,0,0,0,1.56,1.09,1.63,1.63,0,0,0,1.31-.72A5.21,5.21,0,0,1,7.08,55Z"/><path class="cls-30" d="M7.08,54.94c.07-.69-.32-1.49-1.71-1.1l.15.75c.26-.1,1.37-.27,1.5.34a.83.83,0,0,1-.37.81l.12.36.2-.33Z"/><path class="cls-30" d="M8,62.65a1.64,1.64,0,0,0,.83.4,1.31,1.31,0,0,0,1.43-1.19,1.4,1.4,0,0,0-.53-1.21l-.15-.14a1.33,1.33,0,0,1,.17.77A1.36,1.36,0,0,1,8.3,62.5a1.48,1.48,0,0,1-.64-.25Z"/><path class="cls-32" d="M4.17,19a1.56,1.56,0,0,0-1.54,1.58A1.33,1.33,0,0,0,4.16,22h0l1.7-.4a4,4,0,0,0-.33-1.67A1.6,1.6,0,0,0,4.22,19Z"/><path class="cls-19" d="M4,22a.85.85,0,0,0,.7-.9.89.89,0,0,0-.87-.9l1.92-.38a2.76,2.76,0,0,1,.4,1.68l-2,.48Z"/><path class="cls-32" d="M9.77,60.65c-.65-.61-2.85-2.93-2.69-5.71a1.14,1.14,0,0,1-1.34,1.12s-1.51.28-1.44-2c0,0-.86,3.84,3.74,8.55a1.64,1.64,0,0,0,.83.4,1.31,1.31,0,0,0,1.43-1.19A1.4,1.4,0,0,0,9.77,60.65Z"/><path class="cls-32" d="M4.55,41.42a1.69,1.69,0,0,1-1.66,1.72,1.66,1.66,0,0,1-1.64-1.76l0-9.08a1.72,1.72,0,0,0,1.68,1.8,1.71,1.71,0,0,0,1.67-1.69v9Z"/><path class="cls-30" d="M4.55,41.41a1.74,1.74,0,0,1-1.67,1.76A1.6,1.6,0,0,1,1.23,42v-.8a1.6,1.6,0,0,0,1.65,1.17A1.86,1.86,0,0,0,4.55,40.6Z"/><path class="cls-32" d="M2.93,34.09l0-2.58a1.21,1.21,0,0,1,1.67.86A1.67,1.67,0,0,1,2.93,34.09Z"/><path class="cls-23" d="M3.12,31.1a1.13,1.13,0,0,0-.23,0v.71l.38,0c1.24,0,1.22,1,1.22,1a.57.57,0,0,1,0,.13h0s0,.06,0,.08c-.08.63-.78,1-1.61,1a1.61,1.61,0,0,1-1.67-1.57v1.3a1.64,1.64,0,0,0,1.67,1.19c.78,0,1.67-.63,1.67-1.28v-1.2s0,0,0,0A1.27,1.27,0,0,0,3.12,31.1Z"/><path class="cls-32" d="M5.41,54s.25,1.49.56,2.76l.83-.56L7,55.39l.05-.83-.89-.63Z"/><path class="cls-23" d="M7.08,54.94A1.36,1.36,0,0,1,5.7,56.06c-1.46-.15-1.45-1.48-1.34-2.22a4.74,4.74,0,0,0-.06,2,1.41,1.41,0,0,0,1.56,1.09,1.63,1.63,0,0,0,1.31-.72A5.21,5.21,0,0,1,7.08,55Z"/><path class="cls-23" d="M7.08,54.94c.07-.69-.32-1.49-1.71-1.1l.15.75c.26-.1,1.37-.27,1.5.34a.83.83,0,0,1-.37.81l.12.36.2-.33Z"/><path class="cls-23" d="M8,62.65a1.64,1.64,0,0,0,.83.4,1.31,1.31,0,0,0,1.43-1.19,1.4,1.4,0,0,0-.53-1.21l-.15-.14a1.33,1.33,0,0,1,.17.77A1.36,1.36,0,0,1,8.3,62.5a1.48,1.48,0,0,1-.64-.25Z"/><path class="cls-32" d="M43.11,19a1.55,1.55,0,0,1,1.53,1.58A1.32,1.32,0,0,1,43.11,22h0l-1.71-.4a4.09,4.09,0,0,1,.34-1.67A1.57,1.57,0,0,1,43.05,19Z"/><path class="cls-19" d="M43.26,22a.86.86,0,0,1-.71-.9.89.89,0,0,1,.88-.9l-1.92-.38a2.8,2.8,0,0,0-.41,1.68l2,.48Z"/><path class="cls-32" d="M37.51,60.65c.64-.61,2.85-2.93,2.68-5.71a1.15,1.15,0,0,0,1.35,1.12s1.51.28,1.44-2c0,0,.86,3.84-3.74,8.55a1.64,1.64,0,0,1-.83.4A1.31,1.31,0,0,1,37,61.86,1.37,1.37,0,0,1,37.51,60.65Z"/><path class="cls-32" d="M42.72,41.42a1.7,1.7,0,0,0,1.67,1.72A1.65,1.65,0,0,0,46,41.38l0-9.08a1.68,1.68,0,1,1-3.35.11v9Z"/><path class="cls-30" d="M42.72,41.41a1.74,1.74,0,0,0,1.67,1.76A1.6,1.6,0,0,0,46,42v-.8a1.6,1.6,0,0,1-1.65,1.17,1.87,1.87,0,0,1-1.67-1.76Z"/><path class="cls-32" d="M42.72,32.37a1.21,1.21,0,0,1,1.66-.86l0,2.58A1.67,1.67,0,0,1,42.72,32.37Z"/><path class="cls-23" d="M44.39,34c-.83,0-1.53-.4-1.6-1a1.48,1.48,0,0,1,0-.21s0-1,1.23-1l.37,0v-.71a1.08,1.08,0,0,0-.22,0,1.27,1.27,0,0,0-1.44,1.31v1.24c0,.65.9,1.28,1.67,1.28a1.66,1.66,0,0,0,1.68-1.19v-1.3A1.62,1.62,0,0,1,44.39,34Z"/><path class="cls-32" d="M41.86,54s-.25,1.49-.55,2.76l-.83-.56-.22-.82,0-.83.88-.63Z"/><path class="cls-23" d="M40.19,54.94a1.37,1.37,0,0,0,1.38,1.12c1.47-.15,1.46-1.48,1.35-2.22a4.74,4.74,0,0,1,.06,2,1.41,1.41,0,0,1-1.56,1.09,1.63,1.63,0,0,1-1.31-.72A5.21,5.21,0,0,0,40.2,55Z"/><path class="cls-23" d="M40.19,54.94c-.06-.69.33-1.49,1.72-1.1l-.15.75c-.26-.1-1.37-.27-1.5.34a.83.83,0,0,0,.37.81l-.12.36-.2-.33Z"/><path class="cls-30" d="M39.24,62.65a1.64,1.64,0,0,1-.83.4A1.31,1.31,0,0,1,37,61.86a1.37,1.37,0,0,1,.53-1.21l.15-.14a1.26,1.26,0,0,0-.17.77A1.35,1.35,0,0,0,39,62.5a1.39,1.39,0,0,0,.64-.25Z"/><path class="cls-33" d="M9,20.8c-.09-1.32-2.07-5.13-.6-6.38,1.08-.91,1-3.13,0-4.17a2.62,2.62,0,0,0-3.6-.17c-3.25,2.57,2,9.66,3.66,10.91Z"/><path class="cls-34" d="M9,13.39a1.68,1.68,0,0,1-1.58,1.24A3.35,3.35,0,0,1,5.17,14S7.24,20.66,9,20.75c.32,0,.1-.49.1-.49a32.2,32.2,0,0,1-1-3.59,2.34,2.34,0,0,1,.33-2.2,3.11,3.11,0,0,0,.57-1"/><path class="cls-23" d="M8.67,19l.2.68a.41.41,0,0,1,0,.16.66.66,0,0,1-.6.73.65.65,0,0,1-.57-.23l-.53-.59a1.22,1.22,0,0,0-.07.51A1.2,1.2,0,1,0,8.67,19Z"/><path class="cls-33" d="M38.21,20.8c.08-1.32,2.07-5.13.59-6.38-1.07-.91-1-3.13,0-4.17a2.61,2.61,0,0,1,3.59-.17c3.26,2.57-2,9.66-3.65,10.91Z"/><path class="cls-34" d="M38.19,13.39a1.67,1.67,0,0,0,1.58,1.24A3.36,3.36,0,0,0,42,14s-2.07,6.71-3.8,6.8c-.31,0-.09-.49-.09-.49a32.2,32.2,0,0,0,1-3.59,2.37,2.37,0,0,0-.33-2.2,3.1,3.1,0,0,1-.58-1"/><path class="cls-23" d="M38.49,19l-.2.68a.75.75,0,0,0,0,.16.67.67,0,0,0,1.18.5l.53-.59a1.22,1.22,0,0,1,.06.51,1.19,1.19,0,0,1-1.29,1.08A1.21,1.21,0,0,1,37.64,20,1.22,1.22,0,0,1,38.49,19Z"/><path class="cls-26" d="M31,24.44a1.9,1.9,0,0,1-1.62-1.3c-.11-.44.66-.77.67-.77a2.18,2.18,0,0,1,1.11-.1,2.87,2.87,0,0,1,1.75,1.05l.44.6a.29.29,0,0,1,0,.32.31.31,0,0,1-.28.16l-.42,0a1.69,1.69,0,0,0-.43,0A4.36,4.36,0,0,1,31,24.44ZM30,23.1a1.38,1.38,0,0,0,1.09.73,3.08,3.08,0,0,0,1,0l.34,0,0-.08a2.26,2.26,0,0,0-1.38-.81,1.49,1.49,0,0,0-.79.06Z"/><path class="cls-35" d="M29.92,23.08a1.42,1.42,0,0,0,1.2.85h0a3.53,3.53,0,0,0,1.07,0,2,2,0,0,1,.53,0l-.18-.24a2.17,2.17,0,0,0-2.28-.79A1.65,1.65,0,0,0,29.92,23.08Z"/><path class="cls-36" d="M29.7,23.07s.35,1.41,2.52,1a2.11,2.11,0,0,1,.5,0l.41,0-.43-.6a2.34,2.34,0,0,0-2.51-.85c-.08,0-.52.3-.49.42"/><path class="cls-26" d="M28.4,23.36a1.62,1.62,0,0,1-1-.52c-.19-.24,0-.53.1-.64a1.54,1.54,0,0,1,.26-.29,2.87,2.87,0,0,1,2.95-.22c.18.08.62.32.62.32a.31.31,0,0,1,.16.3.3.3,0,0,1-.21.26l-.28.09a2.45,2.45,0,0,0-.51.21A3.29,3.29,0,0,1,28.4,23.36Z"/><path class="cls-36" d="M30.57,22a2.58,2.58,0,0,0-2.63.19c-.06.05-.38.41-.31.5s.8,1,2.7,0a3.57,3.57,0,0,1,.57-.23l.28-.09Z"/><path class="cls-26" d="M30.54,24.82h-.06l-.27-.1a3.1,3.1,0,0,0-.5-.13l-.14,0c-2.28-.36-2.35-1.81-2.35-1.87s.07-.33.44-.45a2.42,2.42,0,0,1,.4-.08,2.73,2.73,0,0,1,.41,0,3,3,0,0,1,2.09,1.57c.09.18.3.64.3.64a.31.31,0,0,1-.05.33A.3.3,0,0,1,30.54,24.82Z"/><path class="cls-36" d="M30.29,23.9a2.58,2.58,0,0,0-2.22-1.43c-.07,0-.55.1-.54.21s0,1.29,2.18,1.59a3.33,3.33,0,0,1,.6.16l.27.09S30.38,24.07,30.29,23.9Z"/><path class="cls-26" d="M25.9,22.83a1.69,1.69,0,0,1-.91-.44.35.35,0,0,1-.1-.26,1.66,1.66,0,0,1,.39-.69,2.79,2.79,0,0,1,2.29-.6,2.71,2.71,0,0,1,.65.18l.64.28a.32.32,0,0,1,.18.29.3.3,0,0,1-.2.27l-.27.11a2.91,2.91,0,0,0-.5.25A3.16,3.16,0,0,1,25.9,22.83Z"/><path class="cls-36" d="M28.1,21.3a2.57,2.57,0,0,0-2.61.37c-.06,0-.36.43-.28.51s.87,1,2.7-.22a2.81,2.81,0,0,1,.55-.27l.27-.11Z"/><path class="cls-26" d="M28.2,24.4l-.28-.09a2.93,2.93,0,0,0-.45-.11h-.09l-.25,0c-2.14-.34-2.25-1.72-2.25-1.78,0-.46.82-.55.83-.55a1.94,1.94,0,0,1,.48,0,3,3,0,0,1,2.06,1.5c.1.18.32.63.32.63a.31.31,0,0,1-.05.33.29.29,0,0,1-.28.1Z"/><path class="cls-36" d="M28,23.5a2.58,2.58,0,0,0-2.25-1.37c-.08,0-.55.11-.54.22s.07,1.29,2.22,1.54A2.91,2.91,0,0,1,28,24l.28.09Z"/><path class="cls-26" d="M12.12,24.45a1.64,1.64,0,0,0-.43,0l-.41,0a.3.3,0,0,1-.29-.16A.31.31,0,0,1,11,24s.32-.44.45-.6a2.85,2.85,0,0,1,1.75-1.05,2.19,2.19,0,0,1,1.11.1s.77.33.66.77a1.89,1.89,0,0,1-1.62,1.3A4.36,4.36,0,0,1,12.12,24.45Zm2-1.47a1.45,1.45,0,0,0-.78-.06,2.24,2.24,0,0,0-1.38.81l-.06.08a2.09,2.09,0,0,1,.34,0,3.34,3.34,0,0,0,1,0,1.34,1.34,0,0,0,1.09-.73Z"/><path class="cls-35" d="M14.13,22.88a2.15,2.15,0,0,0-2.27.79l-.18.24a2,2,0,0,1,.53,0,3.53,3.53,0,0,0,1.07,0h0a1.4,1.4,0,0,0,1.19-.85A1.42,1.42,0,0,0,14.13,22.88Z"/><path class="cls-36" d="M14.69,23.11s-.35,1.41-2.52,1a2.07,2.07,0,0,0-.5,0l-.41,0s.31-.43.44-.59a2.32,2.32,0,0,1,2.51-.86c.07,0,.51.3.48.42"/><path class="cls-26" d="M16,23.4a1.62,1.62,0,0,0,1-.52c.2-.24,0-.53-.1-.64a1.54,1.54,0,0,0-.25-.29,2.8,2.8,0,0,0-2.13-.49,2.89,2.89,0,0,0-.83.27c-.18.08-.62.32-.62.32a.31.31,0,0,0,0,.56l.28.09a2.24,2.24,0,0,1,.51.21A3.24,3.24,0,0,0,16,23.4Z"/><path class="cls-36" d="M13.83,22a2.59,2.59,0,0,1,2.63.19c.06,0,.38.41.31.5s-.81,1-2.71,0a2.87,2.87,0,0,0-.57-.24l-.27-.09Z"/><path class="cls-26" d="M13.86,24.86h.05l.28-.1a2.85,2.85,0,0,1,.5-.13l.13,0c2.28-.36,2.35-1.81,2.35-1.87s-.06-.33-.43-.45a2.64,2.64,0,0,0-.41-.08,2.73,2.73,0,0,0-.41,0,3,3,0,0,0-2.09,1.57c-.09.18-.3.64-.3.64a.29.29,0,0,0,.06.33A.28.28,0,0,0,13.86,24.86Z"/><path class="cls-36" d="M14.1,23.94a2.59,2.59,0,0,1,2.22-1.43c.08,0,.55.09.55.21s0,1.29-2.19,1.59a3,3,0,0,0-.59.16l-.28.09Z"/><path class="cls-26" d="M18.5,22.87a1.74,1.74,0,0,0,.91-.44.39.39,0,0,0,.09-.26,1.47,1.47,0,0,0-.39-.69,2.93,2.93,0,0,0-2.93-.42c-.19.07-.64.28-.64.28a.31.31,0,0,0-.18.29.29.29,0,0,0,.19.27l.27.11a2.91,2.91,0,0,1,.5.25A3.17,3.17,0,0,0,18.5,22.87Z"/><path class="cls-36" d="M16.29,21.34a2.57,2.57,0,0,1,2.61.37c.06.05.36.43.28.52s-.87.95-2.69-.23a2.81,2.81,0,0,0-.55-.27l-.28-.11S16.11,21.41,16.29,21.34Z"/><path class="cls-26" d="M16.2,24.44l.27-.09a3.63,3.63,0,0,1,.45-.11H17l.25,0c2.14-.34,2.25-1.72,2.25-1.78,0-.46-.82-.55-.82-.55a1.94,1.94,0,0,0-.48,0,3,3,0,0,0-2.07,1.5l-.31.63a.29.29,0,0,0,0,.33.3.3,0,0,0,.28.1Z"/><path class="cls-37" d="M18.28,6.89c-.59.05-.54.58-.89,1a2,2,0,0,1-1.33.76,2.08,2.08,0,0,1-2.33-1.77A2.29,2.29,0,0,1,15.5,4.54a5.56,5.56,0,0,1,2.28-.12c3.41.65,4.53,4.09,4.9,4.47s-1.84-2.22-4.4-2"/><path class="cls-38" d="M17.52,7.71s.31-1.28-.29-1.64c0,0,2.53-.17,3.32,1.27a4.69,4.69,0,0,0-1.93-.47A1.51,1.51,0,0,0,18,7a.69.69,0,0,0-.31.32c-.11.2-.1.21-.1.21Z"/><path class="cls-37" d="M27.76,6.56c.74.15.6.82,1,1.42a2.62,2.62,0,0,0,1.58,1.16,2.31,2.31,0,0,0,2.74-1.91A2.89,2.89,0,0,0,30.7,3.67a6.21,6.21,0,0,0-1.94-.19c-4.45.32-6.4,4.55-6.93,5s2.69-2.57,5.93-1.9"/><path class="cls-39" d="M28.61,7.72s-.2-1.67.61-2.06c0,0-3.2-.59-4.43,1.14a5.91,5.91,0,0,1,2.53-.31,2,2,0,0,1,.73.18.89.89,0,0,1,.35.46c.11.27.09.28.09.28Z"/><path class="cls-33" d="M28.75,2.61c-.28,1-1.61,1.72-2.42,1.1-1.07-.82-2.48,1.85-2.81,3.59-.16.86-.48,1.32-.64,1.08-.58-.85-.38-9.51,4.43-8.26A2,2,0,0,1,28.75,2.61Z"/><path class="cls-34" d="M26,1.93c-.44,2,.92,2,1.16,2a1.18,1.18,0,0,1-.79-.22C25.33,3,24,5.24,23.6,7,23.44,3.07,26,1.93,26,1.93Z"/><path class="cls-33" d="M16.6,2.61c.27,1,1.6,1.72,2.42,1.1,1.07-.82,2.48,1.85,2.8,3.59.16.86.48,1.32.64,1.08.59-.85.38-9.51-4.43-8.26A2,2,0,0,0,16.6,2.61Z"/><path class="cls-34" d="M19.38,1.93c.45,2-.92,2-1.15,2A1.19,1.19,0,0,0,19,3.71C20,3,21.32,5.24,21.75,7,21.9,3.07,19.38,1.93,19.38,1.93Z"/><path class="cls-21" d="M25,12.39a4.17,4.17,0,1,1-4.17-4.16A4.17,4.17,0,0,1,25,12.39"/><path class="cls-40" d="M28.74,10.22a1.07,1.07,0,0,0-.29-.1,1.1,1.1,0,0,0,.29-.54,1.11,1.11,0,0,0-.86-1.31,2.16,2.16,0,0,0-.65,0,.88.88,0,0,0,.2-.29A.81.81,0,0,0,27,7a6.8,6.8,0,0,0-2.26.14,7.41,7.41,0,0,1,.8.25,4.86,4.86,0,0,1,2.12,1.78,3.55,3.55,0,0,1,.27,2.93A10.29,10.29,0,0,1,27,13.91a10.34,10.34,0,0,0-.63,1.24.91.91,0,0,0,.73-.1A.89.89,0,0,0,27.49,14a1.11,1.11,0,0,0,.84-1.89L28.21,12a1,1,0,0,0,.53-1.8Z"/><path class="cls-40" d="M25.74,16.5a3.42,3.42,0,0,1,.2-1.14c.42-1.19,1.23-2.17,1.6-3.38a3.25,3.25,0,0,0-.24-2.69,4.57,4.57,0,0,0-2-1.66,4.8,4.8,0,0,0-4.14.25l.4,1.89,3.12,4.16s-1.08,1.17-1.1,1.21-.59.66-.59.66l-2,1-.08,2.34L16.67,23.6l2-.55,2.86-.43h1.3L24.41,22l1.5-1.2,1.65-1.1-.22-.3A3.14,3.14,0,0,1,25.74,16.5Z"/><path class="cls-41" d="M18.62,21.54a2.81,2.81,0,0,1,1.07-2,3.21,3.21,0,0,1,1.25-.46"/><polygon class="cls-41" points="24.73 14.58 25.29 14.29 20.94 19.11 20.95 16.52 24.73 14.58"/><path class="cls-40" d="M23.61,12.67l-1.22-.42a2.45,2.45,0,0,1,.56-.6l-.39-.6a3.16,3.16,0,0,0-.87.95l-2.06-.71a3.49,3.49,0,0,1,1.75-2.07L20.66,8.1a4.26,4.26,0,1,0,4,6.25ZM22.07,13l1.7.59L22,13.68v0A2.26,2.26,0,0,1,22.07,13Zm-.69-.25a3,3,0,0,0-.15.94s0,.06,0,.08l-1.44.11a3.5,3.5,0,0,1-.34-1.49c0-.1,0-.2,0-.3Zm-.77-3.88a4.24,4.24,0,0,0-1.67,2.22l-1.12-.39A3.57,3.57,0,0,1,20.61,8.83Zm-2.79,5.22a3.6,3.6,0,0,1-.43-1.7,3.45,3.45,0,0,1,.14-1l1.25.43a3.27,3.27,0,0,0,0,.54A4.19,4.19,0,0,0,19,13.9L17.82,14Zm.49.67,1.1-.07a4.39,4.39,0,0,0,1.2,1.23A3.49,3.49,0,0,1,18.31,14.72Zm3.62,1v0a3.55,3.55,0,0,1-1.67-1.15l1.09-.08A3.24,3.24,0,0,0,22,15.73Zm.75-.32h0a2.42,2.42,0,0,1-.59-1l1.78-.13A3.54,3.54,0,0,1,22.68,15.43Z"/><path class="cls-42" d="M20.26,8.88a2.8,2.8,0,0,0-.62.18l3.63,4.42a1.4,1.4,0,0,0,.27,1.26c.11-.12.39-.45.56-.69a.17.17,0,0,1,.06-.06A41,41,0,0,0,20.26,8.88Z"/><path class="cls-43" d="M24.74,12.81,21.65,7.57,21.4,7.5a1.6,1.6,0,0,0-1.82.77v0l4.18,5.08a1.14,1.14,0,0,0-.1.45,1,1,0,1,0,2.07,0A1,1,0,0,0,24.74,12.81Z"/><path class="cls-44" d="M25.11,13.84a.41.41,0,0,1-.41.42.42.42,0,0,1,0-.84.41.41,0,0,1,.41.42"/><path class="cls-45" d="M27.52,20.23a.88.88,0,0,1,.3.66l.75.28a3.22,3.22,0,0,0,0-.54,1.61,1.61,0,0,0-.62-1,1.09,1.09,0,0,0-.83-.25c-1.28.1-2.34,3.82-8.18,3.38h0a2.4,2.4,0,0,0-2.5,1,.39.39,0,0,0,.16.53.37.37,0,0,0,.18,0,.37.37,0,0,0,.34-.21s.4-.69,1.74-.58a5.87,5.87,0,0,0,1.44,0c4.94-.55,6.17-3.33,6.91-3.39a.38.38,0,0,1,.3.09l0,0"/><path class="cls-46" d="M33.35,50.08l-.1-21-19.66.09.1,21,0,3.2a3.94,3.94,0,0,0,2.51,3.83,9.28,9.28,0,0,0,2.9.23s3-.13,4.44,1.54h0C25,57.29,28,57.39,28,57.39a8.93,8.93,0,0,0,2.89-.26,4,4,0,0,0,2.48-3.86Z"/><path class="cls-47" d="M23.33,55.68,18,49.44a1.1,1.1,0,0,0-1.73-.13l-4.68,7.1,2.87,2.78,5.92.6Z"/><path class="cls-47" d="M22.1,58.78l6.4-9.24a1.4,1.4,0,0,1,2.2-.27L37.12,58,33.63,60.2l-8.05.91Z"/><path class="cls-48" d="M20.79,33.69s.16-.08.17.15a.12.12,0,0,0,.16.12s-.13,0,0-.19.2-.24.1-.44c0,0,0-.15.17-.13a.21.21,0,0,0-.11-.1.16.16,0,0,0-.2.11s0,.16-.06.23-.36-.16-.68,0a2,2,0,0,1-.13.41.34.34,0,0,1,.22.14l.28-.19"/><path class="cls-48" d="M21,32c0-.07-.09-.2-.48-.2s-.33-.1-.32-.13a.24.24,0,0,0,.11.29,2.19,2.19,0,0,0-.72.66A2.63,2.63,0,0,0,18,32c-1-.1-1.67-1-2.2-1.79,0,0-.25.7-.26.78a2.52,2.52,0,0,0,.87,2.22,2.32,2.32,0,0,0,2.1.58c.1,0,.61-.32.66-.31a.46.46,0,0,1,.25.5,1,1,0,0,1-.32.5,1.82,1.82,0,0,1-1.49.46,1,1,0,0,0,.2.49,1.47,1.47,0,0,0,1.17.22c.41-.13.73-.73,1-1.07l.46.36a.16.16,0,0,1,.07.09c0,.12-.27.17-.2.27a2.83,2.83,0,0,1,.82,0c.1,0,0-.19-.11-.2s-.23,0-.3-.05,0-.17,0-.26a.53.53,0,0,0-.37-.52c.23.07.28-1,.26-1.14a.74.74,0,0,1,.39-.79c.43-.08.36.14.36.14l.06-.07C21.44,32.12,21,32,21,32"/><path class="cls-24" d="M28.49,33.18A4.11,4.11,0,0,1,28,33l.37.22h.09"/><path class="cls-48" d="M26.1,33.69s-.15-.08-.17.15a.12.12,0,0,1-.16.12s.13,0,0-.19-.19-.24-.09-.44c0,0,0-.15-.18-.13a.21.21,0,0,1,.11-.1.17.17,0,0,1,.21.11s0,.16.06.23.36-.16.68,0a1.23,1.23,0,0,0,.13.41.34.34,0,0,0-.22.14l-.28-.19"/><path class="cls-48" d="M25.87,32c0-.07.09-.2.47-.2s.34-.1.34-.13a.25.25,0,0,1-.12.29,2.19,2.19,0,0,1,.72.66A2.63,2.63,0,0,1,29,32c1-.1,1.67-1,2.2-1.79,0,0,.25.7.26.78a2.52,2.52,0,0,1-.87,2.22,2.32,2.32,0,0,1-2.1.58c-.1,0-.62-.32-.66-.31a.44.44,0,0,0-.24.5.89.89,0,0,0,.31.5,1.82,1.82,0,0,0,1.49.46,1,1,0,0,1-.2.49,1.47,1.47,0,0,1-1.17.22c-.41-.13-.73-.73-1-1.07l-.46.36a.16.16,0,0,0-.07.09c0,.12.27.17.2.27a2.83,2.83,0,0,0-.82,0c-.1,0,0-.19.11-.2s.23,0,.3-.05,0-.17,0-.26a.53.53,0,0,1,.38-.52c-.24.07-.29-1-.27-1.14a.74.74,0,0,0-.39-.79c-.43-.08-.36.14-.36.14l-.06-.07c-.13-.21.27-.37.27-.37"/><path class="cls-49" d="M16.07,57.87v-2.3a1.46,1.46,0,0,1,1.46-1.46h0A1.46,1.46,0,0,1,19,55.57v2.3Z"/><path class="cls-49" d="M27.25,57.87v-2.3a1.46,1.46,0,0,1,1.46-1.46h0a1.46,1.46,0,0,1,1.46,1.46v2.3Z"/><polygon class="cls-27" points="24.35 32.77 23.85 32.77 23.85 32.26 23.25 32.26 23.25 32.77 22.75 32.77 22.75 33.35 23.25 33.35 23.25 34.43 23.85 34.43 23.85 33.35 24.35 33.35 24.35 32.77"/><path class="cls-50" d="M21.56,38.9h3.85v-2H21.56Zm2.44,0H23v-.64a.52.52,0,1,1,1,0Z"/><rect class="cls-50" x="25.88" y="37.52" width="1.82" height="1.38"/><path class="cls-50" d="M27.77,36.9H25.88a.16.16,0,0,0-.16.15v.07a.16.16,0,0,0,.16.15h1.89a.15.15,0,0,0,.15-.15v-.07a.15.15,0,0,0-.15-.15"/><rect class="cls-50" x="19.22" y="37.52" width="1.82" height="1.38"/><path class="cls-50" d="M21.07,36.91H19.18a.15.15,0,0,0-.15.15v.06a.15.15,0,0,0,.15.15h1.89a.16.16,0,0,0,.16-.15v-.06a.15.15,0,0,0-.16-.15"/><path class="cls-50" d="M19.58,41.39V47.3h2.51V45.66a1.41,1.41,0,0,1,2.82,0V47.3h2.58V41.39Z"/><path class="cls-50" d="M27.49,41.45l-7.85,0-.4-.51a.29.29,0,0,1,.23-.46h8.16a.29.29,0,0,1,.23.46Z"/><path class="cls-50" d="M28.23,40.22H18.69a.49.49,0,0,1-.49-.49v-.58H28.72v.58a.49.49,0,0,1-.49.49"/><path class="cls-50" d="M25.49,36.11H21.42a.29.29,0,0,1-.28-.29v0a.29.29,0,0,1,.28-.29h4.07a.28.28,0,0,1,.28.29v0a.28.28,0,0,1-.28.29"/><path class="cls-50" d="M25.11,36.72H21.85a.25.25,0,0,1-.25-.25V36h3.76v.44a.25.25,0,0,1-.25.25"/><path class="cls-20" d="M23.52,34.33a1.87,1.87,0,0,0-1.6.9h3.21a1.87,1.87,0,0,0-1.61-.9"/><rect class="cls-50" x="19.18" y="47.37" width="8.56" height="0.63"/><rect class="cls-50" x="18.74" y="47.82" width="9.36" height="0.46"/><rect class="cls-50" x="18.42" y="48.57" width="10.01" height="0.55"/><rect class="cls-46" x="19.58" y="46.99" width="7.93" height="0.38"/><path class="cls-32" d="M37.84,55.79l0-30.08a.86.86,0,0,0-.8-.85H9.6a.86.86,0,0,0-.79.86v30.2A5,5,0,0,0,12.4,60.6l.44.11a17.19,17.19,0,0,0,3.94.21s4.77,0,6.7,2.38h0c1.9-2.38,6.68-2.44,6.68-2.44A16.47,16.47,0,0,0,34,60.64l.49-.15a4.77,4.77,0,0,0,3.4-4.7m-7.15.88a9,9,0,0,1-2.81.25s-2.92-.1-4.29,1.53h0c-1.38-1.61-4.5-1.49-4.5-1.49a11.08,11.08,0,0,1-2.18-.09,3.59,3.59,0,0,1-1.14-.35A3.94,3.94,0,0,1,13.85,53V49.93l0-19.5a.87.87,0,0,1,.8-.87l17.58-.08a.86.86,0,0,1,.81.86V52.93a3.81,3.81,0,0,1-2.39,3.74"/><path class="cls-51" d="M12.51,27.19h21.7a1.35,1.35,0,0,1,1.28,1.36c0,5-.12,23.19-.12,27.15,0,4.6-8.56,1.5-11.88,4.9-3.47-2.91-12.31-.8-12.31-4.8,0-3.45.13-22.11.05-27.24A1.36,1.36,0,0,1,12.51,27.19Z"/><path class="cls-52" d="M25.89,42.78a.71.71,0,1,1-.71-.7.7.7,0,0,1,.71.7"/><path class="cls-52" d="M22.57,42.78a.7.7,0,1,1-.7-.7.7.7,0,0,1,.7.7"/><path class="cls-49" d="M15.32,69a2.59,2.59,0,0,0,1,0,1.58,1.58,0,0,0,1.13-2h0a.77.77,0,0,1-.82.69.94.94,0,0,1-.59-1.49c.08-.08.23-.2.27-.19-.84-.06-3.3,1.85-1,3"/><path class="cls-49" d="M31.34,69a2.64,2.64,0,0,1-1.05,0,1.59,1.59,0,0,1-1.12-2h0a.78.78,0,0,0,.83.69.94.94,0,0,0,.59-1.49c-.09-.08-.23-.2-.27-.19.83-.06,3.3,1.85,1,3"/><path class="cls-19" d="M24.11,73.09a14.39,14.39,0,0,1-.86,2.46,14.39,14.39,0,0,1-.86-2.46.86.86,0,0,1,1.72,0"/><path class="cls-21" d="M67.84,37.47l-.45-9-1.77,6.81H63.21l-1.75-6.75-.45,9H58.35l.84-13.41h3.5l1.75,7.68,1.75-7.68h3.44l.83,13.41Z"/><path class="cls-21" d="M80.07,27.56v9.91H77.54v-.85a2.9,2.9,0,0,1-2.37,1.09,2.83,2.83,0,0,1-2.93-3.08V27.56h2.52v6.32a1.27,1.27,0,0,0,1.33,1.38,1.36,1.36,0,0,0,1.45-1.42V27.56Z"/><path class="cls-21" d="M90.38,30.42v7H87.85V31.25a1.37,1.37,0,0,0-1.42-1.48,1.46,1.46,0,0,0-1.57,1.52v6.18H82.33V27.56h2.53v.91a3.14,3.14,0,0,1,2.51-1.15A2.89,2.89,0,0,1,90.38,30.42Z"/><path class="cls-21" d="M92.11,24.66a1.62,1.62,0,0,1,3.23,0,1.62,1.62,0,0,1-3.23,0Zm.35,2.9H95v9.91H92.46Z"/><path class="cls-21" d="M96.58,32.52a5.17,5.17,0,0,1,5.37-5.2,5.84,5.84,0,0,1,2.53.55v2.49a4.93,4.93,0,0,0-2.28-.59,2.76,2.76,0,1,0,0,5.49,4.93,4.93,0,0,0,2.28-.59v2.49a5.84,5.84,0,0,1-2.53.55A5.13,5.13,0,0,1,96.58,32.52Z"/><path class="cls-21" d="M106.09,24.66a1.62,1.62,0,0,1,3.23,0,1.62,1.62,0,0,1-3.23,0Zm.35,2.9H109v9.91h-2.53Z"/><path class="cls-21" d="M121.79,32.52A4.92,4.92,0,0,1,117,37.71a4.26,4.26,0,0,1-3.22-1.4v4.86h-2.53V27.56h2.53v1.16a4.26,4.26,0,0,1,3.22-1.4A4.92,4.92,0,0,1,121.79,32.52Zm-2.61,0a2.72,2.72,0,1,0-2.72,2.74A2.66,2.66,0,0,0,119.18,32.52Z"/><path class="cls-21" d="M122.68,24.66a1.62,1.62,0,0,1,3.23,0,1.62,1.62,0,0,1-3.23,0Zm.35,2.9h2.53v9.91H123Z"/><path class="cls-21" d="M126.77,32.52a5.34,5.34,0,1,1,5.34,5.19A5.16,5.16,0,0,1,126.77,32.52Zm8,0a2.73,2.73,0,1,0-2.71,2.74A2.67,2.67,0,0,0,134.82,32.52Z"/><path class="cls-21" d="M67.84,37.47l-.45-9-1.77,6.81H63.21l-1.75-6.75-.45,9H58.35l.84-13.41h3.5l1.75,7.68,1.75-7.68h3.44l.83,13.41Z"/><path class="cls-21" d="M80.07,27.56v9.91H77.54v-.85a2.9,2.9,0,0,1-2.37,1.09,2.83,2.83,0,0,1-2.93-3.08V27.56h2.52v6.32a1.27,1.27,0,0,0,1.33,1.38,1.36,1.36,0,0,0,1.45-1.42V27.56Z"/><path class="cls-21" d="M90.38,30.42v7H87.85V31.25a1.37,1.37,0,0,0-1.42-1.48,1.46,1.46,0,0,0-1.57,1.52v6.18H82.33V27.56h2.53v.91a3.14,3.14,0,0,1,2.51-1.15A2.89,2.89,0,0,1,90.38,30.42Z"/><path class="cls-21" d="M92.11,24.66a1.62,1.62,0,0,1,3.23,0,1.62,1.62,0,0,1-3.23,0Zm.35,2.9H95v9.91H92.46Z"/><path class="cls-21" d="M96.58,32.52a5.17,5.17,0,0,1,5.37-5.2,5.84,5.84,0,0,1,2.53.55v2.49a4.93,4.93,0,0,0-2.28-.59,2.76,2.76,0,1,0,0,5.49,4.93,4.93,0,0,0,2.28-.59v2.49a5.84,5.84,0,0,1-2.53.55A5.13,5.13,0,0,1,96.58,32.52Z"/><path class="cls-21" d="M106.09,24.66a1.62,1.62,0,0,1,3.23,0,1.62,1.62,0,0,1-3.23,0Zm.35,2.9H109v9.91h-2.53Z"/><path class="cls-21" d="M121.79,32.52A4.92,4.92,0,0,1,117,37.71a4.26,4.26,0,0,1-3.22-1.4v4.86h-2.53V27.56h2.53v1.16a4.26,4.26,0,0,1,3.22-1.4A4.92,4.92,0,0,1,121.79,32.52Zm-2.61,0a2.72,2.72,0,1,0-2.72,2.74A2.66,2.66,0,0,0,119.18,32.52Z"/><path class="cls-21" d="M122.68,24.66a1.62,1.62,0,0,1,3.23,0,1.62,1.62,0,0,1-3.23,0Zm.35,2.9h2.53v9.91H123Z"/><path class="cls-21" d="M126.77,32.52a5.34,5.34,0,1,1,5.34,5.19A5.16,5.16,0,0,1,126.77,32.52Zm8,0a2.73,2.73,0,1,0-2.71,2.74A2.67,2.67,0,0,0,134.82,32.52Z"/><path class="cls-21" d="M67.93,43v14H65.4V55.88a4.3,4.3,0,0,1-3.23,1.4,4.92,4.92,0,0,1-4.84-5.19,4.92,4.92,0,0,1,4.84-5.2,4.3,4.3,0,0,1,3.23,1.4V43ZM65.4,52.09a2.73,2.73,0,1,0-2.72,2.74A2.67,2.67,0,0,0,65.4,52.09Z"/><path class="cls-21" d="M79.54,53H72.26c.36,1.27,1.48,2.08,3.33,2.08a7.53,7.53,0,0,0,3.4-.87v2.27a8,8,0,0,1-3.63.84c-3.7,0-5.8-2.24-5.8-5.14a5.1,5.1,0,0,1,5.19-5.25,4.77,4.77,0,0,1,4.92,4.89A5,5,0,0,1,79.54,53Zm-7.29-1.79h4.84a2.29,2.29,0,0,0-2.36-2.06A2.56,2.56,0,0,0,72.25,51.17Z"/><path class="cls-21" d="M96.22,57.45a2.66,2.66,0,0,0,.9-.15v2.47a4.54,4.54,0,0,1-1.34.21,4.84,4.84,0,0,1-4.32-2.72l0,0a7.66,7.66,0,0,1-1,.06,6.95,6.95,0,1,1,7.08-6.94,6.76,6.76,0,0,1-3.45,6A2.48,2.48,0,0,0,96.22,57.45Zm-5.75-2.76a4.36,4.36,0,1,0-4.32-4.35A4.23,4.23,0,0,0,90.47,54.69Z"/><path class="cls-21" d="M106.61,47.13v9.92h-2.53v-.86a2.9,2.9,0,0,1-2.37,1.09,2.84,2.84,0,0,1-2.94-3.07V47.13h2.53v6.32a1.27,1.27,0,0,0,1.32,1.38,1.36,1.36,0,0,0,1.46-1.42V47.13Z"/><path class="cls-21" d="M108.52,44.23a1.61,1.61,0,1,1,1.61,1.56A1.57,1.57,0,0,1,108.52,44.23Zm.35,2.9h2.52v9.92h-2.52Z"/><path class="cls-21" d="M116.74,49.44v4.4a1,1,0,0,0,1.05,1.07,2.47,2.47,0,0,0,.8-.16V57.1a4.16,4.16,0,0,1-1.23.18,2.93,2.93,0,0,1-3.15-3.21V49.44h-1.36V47.13h1.36V45h2.53v2.18h1.85v2.31Z"/><path class="cls-21" d="M119.45,52.09a5.34,5.34,0,1,1,5.34,5.19A5.16,5.16,0,0,1,119.45,52.09Zm8,0a2.73,2.73,0,1,0-2.71,2.74A2.67,2.67,0,0,0,127.5,52.09Z"/><path class="cls-23" d="M35.41,32.33h0a.67.67,0,0,1-.68-.68v-1.1a.67.67,0,0,1,.68-.68h0a.68.68,0,0,1,.68.68v1.1A.68.68,0,0,1,35.41,32.33Z"/><path class="cls-23" d="M22.32,27.19h0a.68.68,0,0,1,.68-.68h1.1a.68.68,0,0,1,.68.68h0a.67.67,0,0,1-.68.68H23A.67.67,0,0,1,22.32,27.19Z"/><path class="cls-23" d="M28.39,58.82h0a.67.67,0,0,1,.6-.75L30.08,58a.68.68,0,0,1,.76.6h0a.68.68,0,0,1-.6.75l-1.1.12A.67.67,0,0,1,28.39,58.82Z"/><path class="cls-23" d="M15.86,58.63h0a.68.68,0,0,1,.76-.6l1.09.14a.68.68,0,0,1,.6.75h0a.69.69,0,0,1-.76.6l-1.1-.14A.67.67,0,0,1,15.86,58.63Z"/><path class="cls-23" d="M11.18,32.33h0a.68.68,0,0,1-.68-.68v-1.1a.68.68,0,0,1,.68-.68h0a.67.67,0,0,1,.68.68v1.1A.67.67,0,0,1,11.18,32.33Z"/><path class="cls-23" d="M35.41,54h0a.67.67,0,0,1-.68-.68v-1.1a.67.67,0,0,1,.68-.68h0a.68.68,0,0,1,.68.68v1.1A.68.68,0,0,1,35.41,54Z"/><path class="cls-23" d="M11.18,54h0a.68.68,0,0,1-.68-.68v-1.1a.68.68,0,0,1,.68-.68h0a.67.67,0,0,1,.68.68v1.1A.67.67,0,0,1,11.18,54Z"/><path class="cls-23" d="M35.41,42.62h0a.67.67,0,0,1-.68-.68v-1.1a.67.67,0,0,1,.68-.68h0a.68.68,0,0,1,.68.68v1.1A.68.68,0,0,1,35.41,42.62Z"/><path class="cls-23" d="M11.18,42.62h0a.68.68,0,0,1-.68-.68v-1.1a.68.68,0,0,1,.68-.68h0a.67.67,0,0,1,.68.68v1.1A.67.67,0,0,1,11.18,42.62Z"/></g></g></g></svg>